<?xml version="1.0" encoding="UTF-8"?>
<svg width="1410px" height="250px" viewBox="0 0 1410 250" version="1.1" xmlns="http://www.w3.org/2000/svg" xmlns:xlink="http://www.w3.org/1999/xlink">
    <!-- Generator: Sketch 52.5 (67469) - http://www.bohemiancoding.com/sketch -->
    <title>Artboard</title>
    <desc>Created with Sketch.</desc>
    <defs>
        <polygon id="path-1" points="0.079337595 0.192782474 135.856114 0.192782474 135.856114 195.092784 0.079337595 195.092784"></polygon>
        <polygon id="path-3" points="0.335952842 0.192782474 136.112729 0.192782474 136.112729 195.092784 0.335952842 195.092784"></polygon>
        <polygon id="path-5" points="0.0731540951 0.724634793 134.048471 0.724634793 134.048471 199.731596 0.0731540951 199.731596"></polygon>
    </defs>
    <g id="Artboard" stroke="none" stroke-width="1" fill="none" fill-rule="evenodd" opacity="0.5">
        <g id="Group-20" transform="translate(131.000000, 0.000000)">
            <path d="M127.047986,9 L55.9545902,9 L54.0046029,9 L53.4739591,10.8641509 L0.924762816,195.742857 L0,199 L3.40281805,199 L58.5279553,199 L60.6093156,199 L61.0472256,196.977089 L68.5921568,162.126685 L112.859703,162.126685 L120.40721,196.977089 L120.84512,199 L122.929056,199 L179.597182,199 L183,199 L182.075237,195.742857 L129.526041,10.8641509 L128.997973,9 L127.047986,9 Z M55.9545902,11.5606469 L127.047986,11.5606469 L179.597182,196.439353 L122.929056,196.439353 L114.941063,159.566038 L66.5133724,159.566038 L58.5279553,196.439353 L3.40281805,196.439353 L55.9545902,11.5606469 Z M90.2120295,51.2506739 L74.2411953,124.997305 L107.21324,124.997305 L91.2424059,51.2506739 L90.2120295,51.2506739 Z M90.7297936,61.0349057 L104.021649,122.436658 L77.4302103,122.436658 L90.7297936,61.0349057 Z" id="Fill-1" fill="#C0E7DB"></path>
            <g id="Group-19" transform="translate(189.000000, 0.000000)">
                <g id="Group-4" transform="translate(0.000000, 52.899119)">
                    <mask id="mask-2" fill="white">
                        <use xlink:href="#path-1"></use>
                    </mask>
                    <g id="Clip-3"></g>
                    <path d="M68.2240833,110.638401 C67.1007475,110.638401 63.6920931,110.638401 60.8425302,103.869195 C58.6473878,98.6581639 57.5343578,88.9291948 57.5343578,74.9569577 C57.5343578,60.8101639 58.6473878,50.9502773 60.8476832,45.646834 C63.702399,38.7621124 67.1059004,38.7621124 68.2240833,38.7621124 C69.3499956,38.7621124 72.7689557,38.7621124 75.7370357,45.6776381 C78.0197777,50.9785144 79.1740311,60.8307 79.1740311,74.9569577 C79.1740311,88.9112258 78.0223542,98.6273598 75.7447651,103.838391 C72.781838,110.638401 69.3499956,110.638401 68.2240833,110.638401 Z M57.5343578,0.192782474 L54.6538774,0.531627835 L2.35435028,6.69245258 L0.079337595,6.95942165 L0.079337595,9.24149381 L0.079337595,192.52603 L0.079337595,195.09304 L2.6557959,195.09304 L54.9578995,195.09304 L57.5343578,195.09304 L57.5343578,192.52603 L57.5343578,128.684484 C61.5355975,134.08804 65.6836954,138.482762 69.8987812,141.791638 C75.6803536,146.330112 83.2628704,148.630154 92.435062,148.630154 C106.252608,148.630154 117.122685,142.392319 124.743849,130.083504 C132.117673,118.172576 135.856114,100.9197 135.856114,78.8074732 L135.856114,70.5930402 C135.856114,48.4962155 132.256802,31.2587412 125.153506,19.3529474 C117.795141,7.02359691 106.791088,0.770359794 92.435062,0.770359794 C84.1362898,0.770359794 76.9041713,3.1114732 70.9499762,7.72952474 C66.4849739,11.1924216 61.9890542,15.7206278 57.5343578,21.234566 L57.5343578,3.08066907 L57.5343578,0.192782474 Z M68.2240833,113.205411 C72.3876399,113.205411 75.6829301,110.425339 78.1073773,104.862628 C80.5344011,99.3024835 81.7504894,89.3322155 81.7504894,74.9569577 C81.7504894,60.4148443 80.5344011,50.3136588 78.1073773,44.6662361 C75.6829301,39.0188134 72.3876399,36.1951021 68.2240833,36.1951021 C64.0631031,36.1951021 60.8090363,39.0188134 58.4670357,44.6662361 C56.1250351,50.3136588 54.9578995,60.4148443 54.9578995,74.9569577 C54.9578995,89.3322155 56.1250351,99.3024835 58.4670357,104.862628 C60.8090363,110.425339 64.0631031,113.205411 68.2240833,113.205411 Z M54.9578995,3.08066907 L54.9578995,27.467267 L55.9859063,27.467267 C61.5021036,19.9382258 67.0157243,14.0341021 72.5319216,9.75489588 C78.0481188,5.48082371 84.6824989,3.3373701 92.435062,3.3373701 C105.876445,3.3373701 116.048302,9.1131433 122.937752,20.6646897 C129.829778,32.2162361 133.279655,48.8632979 133.279655,70.5930402 L133.279655,78.8074732 C133.279655,100.542349 129.700955,117.184277 122.551283,128.735824 C115.399035,140.28737 105.358577,146.063143 92.435062,146.063143 C83.8168089,146.063143 76.8371834,143.968463 71.4961853,139.773968 C66.1500343,135.58204 60.981659,129.634277 55.9859063,121.933246 L54.9578995,121.933246 L54.9578995,192.52603 L2.6557959,192.52603 L2.6557959,9.24149381 L54.9578995,3.08066907 Z" id="Fill-2" fill="#C0E7DB" mask="url(#mask-2)"></path>
                </g>
                <g id="Group-7" transform="translate(146.858123, 52.899119)">
                    <mask id="mask-4" fill="white">
                        <use xlink:href="#path-3"></use>
                    </mask>
                    <g id="Clip-6"></g>
                    <path d="M68.4806985,110.638401 C67.3573627,110.638401 63.9487084,110.638401 61.0991455,103.869195 C58.904003,98.6581639 57.790973,88.9291948 57.790973,74.9569577 C57.790973,60.8101639 58.904003,50.9502773 61.1042984,45.646834 C63.9590142,38.7621124 67.3625156,38.7621124 68.4806985,38.7621124 C69.6066108,38.7621124 73.025571,38.7621124 75.9936509,45.6776381 C78.276393,50.9785144 79.4306463,60.8307 79.4306463,74.9569577 C79.4306463,88.9112258 78.2789695,98.6273598 76.0013803,103.838391 C73.0384533,110.638401 69.6066108,110.638401 68.4806985,110.638401 Z M57.790973,0.192782474 L54.9104926,0.531627835 L2.61096552,6.69245258 L0.335952842,6.95942165 L0.335952842,9.24149381 L0.335952842,192.52603 L0.335952842,195.09304 L2.91241115,195.09304 L55.2145147,195.09304 L57.790973,195.09304 L57.790973,192.52603 L57.790973,128.684484 C61.7922128,134.08804 65.9403106,138.482762 70.1553964,141.791638 C75.9369689,146.330112 83.5194856,148.630154 92.6916772,148.630154 C106.509223,148.630154 117.379301,142.392319 125.000464,130.083504 C132.374288,118.172576 136.112729,100.9197 136.112729,78.8074732 L136.112729,70.5930402 C136.112729,48.4962155 132.513417,31.2587412 125.410121,19.3529474 C118.051756,7.02359691 107.047703,0.770359794 92.6916772,0.770359794 C84.392905,0.770359794 77.1607865,3.1114732 71.2065914,7.72952474 C66.7415892,11.1924216 62.2456694,15.7206278 57.790973,21.234566 L57.790973,3.08066907 L57.790973,0.192782474 Z M68.4806985,113.205411 C72.6442551,113.205411 75.9395453,110.425339 78.3639926,104.862628 C80.7910163,99.3024835 82.0071046,89.3322155 82.0071046,74.9569577 C82.0071046,60.4148443 80.7910163,50.3136588 78.3639926,44.6662361 C75.9395453,39.0188134 72.6442551,36.1951021 68.4806985,36.1951021 C64.3197184,36.1951021 61.0656515,39.0188134 58.7236509,44.6662361 C56.3816503,50.3136588 55.2145147,60.4148443 55.2145147,74.9569577 C55.2145147,89.3322155 56.3816503,99.3024835 58.7236509,104.862628 C61.0656515,110.425339 64.3197184,113.205411 68.4806985,113.205411 Z M55.2145147,3.08066907 L55.2145147,27.467267 L56.2425216,27.467267 C61.7587188,19.9382258 67.2723396,14.0341021 72.7885368,9.75489588 C78.304734,5.48082371 84.9391142,3.3373701 92.6916772,3.3373701 C106.13306,3.3373701 116.304918,9.1131433 123.194367,20.6646897 C130.086393,32.2162361 133.536271,48.8632979 133.536271,70.5930402 L133.536271,78.8074732 C133.536271,100.542349 129.95757,117.184277 122.807898,128.735824 C115.65565,140.28737 105.615192,146.063143 92.6916772,146.063143 C84.0734242,146.063143 77.0937986,143.968463 71.7528006,139.773968 C66.4066496,135.58204 61.2382742,129.634277 56.2425216,121.933246 L55.2145147,121.933246 L55.2145147,192.52603 L2.91241115,192.52603 L2.91241115,9.24149381 L55.2145147,3.08066907 Z" id="Fill-5" fill="#C0E7DB" mask="url(#mask-4)"></path>
                </g>
                <path d="M471.054885,166.361488 C469.161188,166.361488 467.659113,165.963602 466.458483,165.142159 C465.286195,164.346385 464.265917,162.777942 463.428568,160.477901 C462.475279,157.864684 461.743565,154.224664 461.248885,149.660519 C460.746475,144.991128 460.491406,139.035664 460.491406,131.96355 L460.491406,123.235715 C460.491406,116.166169 460.746475,110.213272 461.248885,105.541313 C461.743565,100.972035 462.475279,97.3320142 463.428568,94.7213647 C464.265917,92.4238905 465.286195,90.8554472 466.455907,90.057107 C467.661689,89.2356637 469.166341,88.8377771 471.054885,88.8377771 C472.940852,88.8377771 474.448081,89.2382307 475.659016,90.059674 C476.823575,90.8580142 477.846429,92.4264575 478.683778,94.7213647 C479.637068,97.3320142 480.368782,100.972035 480.863462,105.541313 C481.365871,110.236375 481.62094,116.189272 481.62094,123.235715 L481.62094,131.96355 C481.62094,139.015128 481.365871,144.968024 480.863462,149.660519 C480.371358,154.224664 479.637068,157.864684 478.683778,160.477901 C477.843853,162.775375 476.823575,164.343818 475.65644,165.142159 C474.450657,165.963602 472.946005,166.361488 471.054885,166.361488 M471.054885,52.8996327 C449.64194,52.8996327 432.766138,59.1246327 420.891242,71.397509 C409.044687,83.6421482 403.038962,101.169695 403.038962,123.492416 L403.038962,131.706849 C403.038962,154.027004 409.044687,171.55455 420.891242,183.801756 C432.766138,196.0772 449.64194,202.299633 471.054885,202.299633 C492.46783,202.299633 509.343632,196.0772 521.218528,183.801756 C533.065083,171.551983 539.073384,154.027004 539.073384,131.706849 L539.073384,123.492416 C539.073384,101.172262 533.065083,83.6447152 521.218528,71.397509 C509.343632,59.1246327 492.46783,52.8996327 471.054885,52.8996327 M471.054885,168.928499 C473.461297,168.928499 475.476087,168.374024 477.112138,167.259942 C478.74046,166.148427 480.072489,164.17953 481.103072,161.355818 C482.136232,158.532107 482.90917,154.725231 483.424461,149.932622 C483.937176,145.142581 484.197399,139.151179 484.197399,131.96355 L484.197399,123.235715 C484.197399,116.048086 483.937176,110.059251 483.424461,105.266643 C482.90917,100.476602 482.136232,96.6671585 481.103072,93.8434472 C480.072489,91.0197358 478.74046,89.0534059 477.112138,87.9393235 C475.476087,86.827808 473.461297,86.2707668 471.054885,86.2707668 C468.648473,86.2707668 466.631106,86.827808 465.000208,87.9393235 C463.366733,89.0534059 462.037281,91.0197358 461.009274,93.8434472 C459.976114,96.6671585 459.203177,100.476602 458.687885,105.266643 C458.172593,110.059251 457.914948,116.048086 457.914948,123.235715 L457.914948,131.96355 C457.914948,139.151179 458.172593,145.142581 458.687885,149.932622 C459.203177,154.725231 459.976114,158.532107 461.009274,161.355818 C462.037281,164.17953 463.366733,166.148427 465.000208,167.259942 C466.631106,168.374024 468.648473,168.928499 471.054885,168.928499 M471.054885,55.466643 C491.836598,55.466643 507.939462,61.3707668 519.363478,73.1790142 C530.787494,84.9872616 536.496926,101.760107 536.496926,123.492416 L536.496926,131.706849 C536.496926,153.441726 530.787494,170.212004 519.363478,182.020251 C507.939462,193.828499 491.836598,199.732622 471.054885,199.732622 C450.273172,199.732622 434.170308,193.828499 422.746292,182.020251 C411.322276,170.212004 405.615421,153.441726 405.615421,131.706849 L405.615421,123.492416 C405.615421,101.760107 411.322276,84.9872616 422.746292,73.1790142 C434.170308,61.3707668 450.273172,55.466643 471.054885,55.466643" id="Fill-8" fill="#C0E7DB"></path>
                <path d="M607.861214,166.361488 C599.662924,166.361488 596.009506,162.798478 596.009506,154.809942 C596.009506,149.665653 597.609486,145.604643 600.9022,142.398447 C603.937268,139.443818 609.912075,137.130942 618.682339,135.516293 L618.682339,164.225736 C617.030829,164.962468 615.508142,165.483571 614.145196,165.77621 C612.357134,166.166396 610.244438,166.361488 607.861214,166.361488 M615.590589,53.9264369 C604.228408,53.9264369 593.35833,55.4769111 583.279225,58.5316533 C573.285143,61.5607255 562.610877,65.9811173 551.542412,71.6670451 L549.38334,72.7785606 L550.370123,74.9913235 L563.767706,105.025344 L564.87816,107.515344 L567.30776,106.262643 C576.729868,101.400726 584.629289,98.0533441 590.787025,96.3129111 C596.877772,94.5904472 602.190429,93.7150966 606.572985,93.7150966 C610.669553,93.7150966 613.750998,94.6828595 615.73487,96.5875812 C617.716167,98.5000039 618.682339,101.005406 618.682339,104.239839 L618.682339,112.372128 C593.461388,114.238344 574.663549,119.06689 562.788652,126.729416 C550.127936,134.895076 543.707402,146.590375 543.707402,161.484169 C543.707402,167.799014 544.774056,173.490076 546.876446,178.405901 C548.978836,183.337128 551.877351,187.518787 555.486969,190.837932 C559.075976,194.139107 563.311673,196.690715 568.075545,198.42088 C572.805922,200.143344 577.868663,201.016128 583.127214,201.016128 C591.230176,201.016128 598.562776,199.36554 604.916322,196.113138 C610.607718,193.194447 616.425361,188.912674 622.227545,183.367932 C625.615588,188.8562 631.618736,193.14054 640.113319,196.120839 C649.355075,199.368107 663.296291,201.016128 681.547921,201.016128 L684.12438,201.016128 L684.12438,198.449117 L684.12438,180.993447 L684.12438,178.829457 L681.985919,178.464942 C676.114171,177.456107 674.130298,176.324055 673.470725,175.738777 C673.128056,175.43587 672.015026,174.016313 672.015026,168.415097 L672.015026,103.469736 C672.015026,86.0037977 667.470153,73.2175193 658.501502,65.4651482 C649.638485,57.8077564 635.200013,53.9264369 615.590589,53.9264369 M607.861214,168.928499 C610.437672,168.928499 612.712685,168.715437 614.688828,168.286746 C616.662395,167.860622 618.852385,167.04688 621.258797,165.848086 L621.258797,132.476952 C610.265049,134.189148 602.875767,136.884509 599.101256,140.563035 C595.321591,144.244128 593.433047,148.993097 593.433047,154.809942 C593.433047,164.223169 598.240719,168.928499 607.861214,168.928499 M615.590589,56.4934472 C634.65638,56.4934472 648.394056,60.1309008 656.813922,67.403241 C665.228634,74.6781482 669.438567,86.6994575 669.438567,103.469736 L669.438567,168.415097 C669.438567,173.207705 670.211505,176.288117 671.75738,177.656334 C673.303255,179.029684 676.565051,180.138633 681.547921,180.993447 L681.547921,198.449117 C663.512713,198.449117 649.986307,196.867839 640.968703,193.700148 C631.951099,190.535024 626.063892,185.958045 623.319964,179.966643 L622.031735,179.966643 C615.848235,186.127468 609.747181,190.748086 603.738881,193.828499 C597.72285,196.908911 590.856589,198.449117 583.127214,198.449117 C578.144344,198.449117 573.421696,197.635375 568.956693,196.010457 C564.489115,194.38554 560.583204,192.031591 557.233808,188.951179 C553.884412,185.870767 551.220355,182.020251 549.246787,177.399633 C547.268067,172.779014 546.28386,167.478138 546.28386,161.484169 C546.28386,147.45289 552.250938,136.584169 564.190246,128.883138 C576.126977,121.182107 595.146392,116.476777 621.258797,114.764581 L621.258797,104.239839 C621.258797,100.304612 620.011791,97.1394884 617.522933,94.7419008 C615.031497,92.3468802 611.378079,91.1480863 606.572985,91.1480863 C601.93536,91.1480863 596.434621,92.0465399 590.083652,93.8434472 C583.727529,95.6403544 575.740508,99.021107 566.122589,103.983138 L552.725006,73.9491173 C563.713601,68.3016946 574.150833,63.9814162 584.028975,60.9857152 C593.904539,57.9925812 604.424218,56.4934472 615.590589,56.4934472" id="Fill-10" fill="#C0E7DB"></path>
                <path d="M753.946915,52.8991193 C732.874063,52.8991193 716.12966,59.1215523 704.17747,71.3918616 C692.240739,83.6365008 686.186062,101.166614 686.186062,123.491903 L686.186062,131.706336 C686.186062,154.021356 692.147986,171.546336 703.904365,183.793542 C715.694239,196.074119 732.008373,202.299119 752.40104,202.299119 C769.887463,202.299119 784.225453,198.289449 795.020813,190.377923 C805.911503,182.399655 813.056021,169.46449 816.258559,151.93181 L816.714592,149.411006 L814.187087,148.948944 L767.810837,140.475243 L765.141626,139.990078 L764.788652,142.670037 C763.356141,153.654274 761.550043,158.274893 760.287579,160.215552 C758.700481,162.656779 756.683114,163.793965 753.946915,163.793965 C752.225841,163.793965 750.806212,163.396078 749.605583,162.577202 C748.433294,161.778862 747.415593,160.210418 746.578244,157.912944 C745.624955,155.299728 744.890664,151.659707 744.398561,147.092996 C743.896151,142.423604 743.641082,136.470707 743.641082,129.396027 L743.641082,125.802212 C743.641082,118.717264 743.854928,112.748965 744.274891,108.061604 C744.679394,103.52313 745.369885,99.8959441 746.320598,97.2878616 C747.152794,95.0032224 748.175648,93.3783049 749.275796,92.5850987 C750.37852,91.7918925 751.741467,91.404274 753.431623,91.404274 C756.894383,91.404274 759.027691,92.7493874 760.344261,95.7681915 C761.931359,99.4107791 762.987707,105.851408 763.484964,114.905253 L763.644704,117.803408 L766.512302,117.290006 L813.916558,108.821439 L816.353888,108.385047 L816.013796,105.941253 C813.53009,88.0928307 807.032262,74.6391296 796.703241,65.9549338 C786.389678,57.291274 772.005311,52.8991193 753.946915,52.8991193 M753.946915,55.4661296 C771.466831,55.4661296 785.160707,59.6169853 795.041425,67.9161296 C804.91699,76.217841 811.05669,89.0092533 813.463102,106.292934 L766.056269,114.764068 C765.540977,105.355975 764.420218,98.6791812 762.706873,94.7413874 C760.985799,90.8087276 757.896626,88.8372637 753.431623,88.8372637 C751.197834,88.8372637 749.30929,89.3943049 747.763415,90.5058204 C746.21754,91.6199028 744.929311,93.5862327 743.898728,96.4099441 C742.868144,99.2336554 742.13643,103.045666 741.708738,107.83314 C741.27847,112.628315 741.064623,118.614583 741.064623,125.802212 L741.064623,129.396027 C741.064623,136.583655 741.322269,142.577624 741.837561,147.365099 C742.352853,152.157707 743.12579,155.964583 744.156373,158.788295 C745.186957,161.612006 746.513833,163.580903 748.149884,164.692418 C749.780782,165.806501 751.713126,166.360975 753.946915,166.360975 C757.553957,166.360975 760.388061,164.779697 762.449227,161.612006 C764.510394,158.446882 766.138716,152.242418 767.344498,143.001181 L813.720748,151.472315 C810.628998,168.414583 803.886406,180.697728 793.49555,188.308913 C783.099541,195.925233 769.405665,199.732109 752.40104,199.732109 C732.644758,199.732109 717.103561,193.827985 705.767145,182.019738 C694.430728,170.21149 688.76252,153.441212 688.76252,131.706336 L688.76252,123.491903 C688.76252,101.762161 694.515751,84.9867482 706.024791,73.1785008 C717.528677,61.3702533 733.502718,55.4661296 753.946915,55.4661296" id="Fill-12" fill="#C0E7DB"></path>
                <g id="Group-16" transform="translate(824.466657, 0.000000)">
                    <mask id="mask-6" fill="white">
                        <use xlink:href="#path-5"></use>
                    </mask>
                    <g id="Clip-15"></g>
                    <path d="M57.5281743,0.724121391 L54.6502703,1.06296675 L2.34816678,7.22379149 L0.0731540951,7.49332758 L0.0731540951,9.77283273 L0.0731540951,197.164585 L0.0731540951,199.731596 L2.6496124,199.731596 L54.951716,199.731596 L57.5281743,199.731596 L57.5281743,197.164585 L57.5281743,97.3746265 C60.9832049,95.7984822 64.3171419,95.000142 67.4526917,95.000142 C70.8149697,95.000142 73.0899824,95.8113173 74.4117055,97.482441 C75.8570986,99.3204204 76.5913893,102.285317 76.5913893,106.29242 L76.5913893,197.164585 L76.5913893,199.731596 L79.1678476,199.731596 L131.472528,199.731596 L134.048986,199.731596 L134.048986,197.164585 L134.048986,94.2274719 C134.048986,80.4605956 131.052565,70.1668843 125.14217,63.631276 C119.15448,57.0212245 110.79645,53.668709 100.297382,53.668709 C91.6018353,53.668709 83.5967794,55.9174101 76.5115191,60.3532039 C70.6243118,64.0394307 64.2527304,69.8896472 57.5281743,77.7780698 L57.5281743,3.61200799 L57.5281743,0.724121391 Z M54.951716,3.61200799 L54.951716,83.7027296 L55.9797228,83.7027296 C63.8817205,73.7812348 71.1834033,66.7219564 77.8796184,62.5248946 C84.5809865,58.3329668 92.0501391,56.2357193 100.297382,56.2357193 C110.085347,56.2357193 117.727123,59.2776265 123.227861,65.3486059 C128.723447,71.4247193 131.472528,81.051008 131.472528,94.2274719 L131.472528,197.164585 L79.1678476,197.164585 L79.1678476,106.29242 C79.1678476,101.671802 78.2557813,98.2089049 76.4368018,95.8960286 C74.6126693,93.5857193 71.6188247,92.4331317 67.4526917,92.4331317 C63.4591813,92.4331317 59.2930482,93.5472142 54.951716,95.7676781 L54.951716,197.164585 L2.6496124,197.164585 L2.6496124,9.77283273 L54.951716,3.61200799 Z" id="Fill-14" fill="#C0E7DB" mask="url(#mask-6)"></path>
                </g>
                <path d="M350.990382,52.9579039 L348.107325,53.3018832 L296.578159,59.462708 L294.308299,59.7348111 L294.308299,62.0117492 L294.308299,197.036491 L294.308299,199.603502 L296.884758,199.603502 L348.413924,199.603502 L350.990382,199.603502 L350.990382,197.036491 L350.990382,150.781533 C350.990382,123.201574 361.100405,110.900461 383.773238,110.900461 C389.2276,110.900461 391.994716,111.277811 397.01881,111.96577 L399.948243,112.363656 L399.948243,109.421863 L399.948243,59.0802235 L399.948243,56.8700276 L397.750524,56.5414503 L397.554713,56.5132131 C394.372787,56.0408832 392.07201,55.6969039 387.310715,55.6969039 C371.509296,55.6969039 358.454382,63.6597698 350.992959,77.1930482 L350.990382,55.8509245 L350.990382,52.9579039 Z M348.413924,55.8509245 L348.419077,91.1909554 C353.409676,69.9566461 369.110613,58.2639142 387.310715,58.2639142 C391.976681,58.2639142 394.151212,58.6027595 397.371785,59.0802235 L397.371785,109.421863 C392.218868,108.718502 389.320352,108.33345 383.773238,108.33345 C364.037567,108.33345 348.413924,117.058718 348.413924,150.781533 L348.413924,197.036491 L296.884758,197.036491 L296.884758,62.0117492 L348.413924,55.8509245 Z" id="Fill-17" fill="#C0E7DB"></path>
            </g>
        </g>
    </g>
</svg>