<?xml version="1.0" encoding="UTF-8"?>
<svg width="963px" height="192px" viewBox="0 0 963 192" version="1.1" xmlns="http://www.w3.org/2000/svg" xmlns:xlink="http://www.w3.org/1999/xlink">
    <!-- Generator: Sketch 52.5 (67469) - http://www.bohemiancoding.com/sketch -->
    <title>Group 16</title>
    <desc>Created with Sketch.</desc>
    <defs>
        <polygon id="path-1" points="0 0 142.903493 0 142.903493 189.439488 0 189.439488"></polygon>
    </defs>
    <g id="Code-of-Conduct" stroke="none" stroke-width="1" fill="none" fill-rule="evenodd">
        <g id="Artboard" transform="translate(0.000000, -29.000000)">
            <g id="Group-16" transform="translate(0.000000, 29.000000)">
                <g id="Group-3">
                    <mask id="mask-2" fill="white">
                        <use xlink:href="#path-1"></use>
                    </mask>
                    <g id="Clip-2"></g>
                    <path d="M54.9257156,46.847488 L67.7657156,46.847488 C73.6958933,46.847488 77.8736489,49.410048 80.5391378,54.683648 C83.4233822,60.389888 84.8880933,69.746688 84.8880933,82.495488 L84.8880933,106.943488 C84.8880933,119.697408 83.4233822,129.054208 80.5391378,134.760448 C77.8736489,140.028928 73.6982711,142.591488 67.7657156,142.591488 L54.9257156,142.591488 L54.9257156,46.847488 Z M69.6679378,-0.000512 L2.37682667,-0.000512 L-0.000951111111,-0.000512 L-0.000951111111,2.559488 L-0.000951111111,186.879488 L-0.000951111111,189.439488 L2.37682667,189.439488 L69.6679378,189.439488 C80.5296267,189.439488 90.57336,187.575808 99.5256933,183.894528 C108.546982,180.185088 116.362738,174.586368 122.75896,167.257088 C129.140916,159.950848 134.155649,150.683648 137.662871,139.714048 C141.14156,128.826368 142.903493,116.016128 142.903493,101.631488 L142.903493,87.807488 C142.903493,73.427968 141.14156,60.615168 137.662871,49.727488 C134.155649,38.760448 129.140916,29.493248 122.75896,22.184448 C116.357982,14.850048 108.539849,9.251328 99.5256933,5.544448 C90.57336,1.865728 80.5296267,-0.000512 69.6679378,-0.000512 Z M52.5479378,145.151488 L67.7657156,145.151488 C74.5804267,145.151488 79.5380933,142.097408 82.6268267,135.984128 C85.7179378,129.873408 87.2658711,120.191488 87.2658711,106.943488 L87.2658711,82.495488 C87.2658711,69.252608 85.7179378,59.573248 82.6268267,53.459968 C79.5380933,47.346688 74.5804267,44.287488 67.7657156,44.287488 L52.5479378,44.287488 L52.5479378,145.151488 Z M69.6679378,2.559488 C80.2870933,2.559488 89.9575156,4.351488 98.6768267,7.935488 C107.391382,11.519488 114.845716,16.857088 121.027938,23.935488 C127.21016,31.019008 132.00376,39.897088 135.415871,50.559488 C138.820849,61.227008 140.525716,73.643008 140.525716,87.807488 L140.525716,101.631488 C140.525716,115.801088 138.820849,128.217088 135.415871,138.879488 C132.00376,149.547008 127.21016,158.422528 121.027938,165.503488 C114.845716,172.587008 107.391382,177.919488 98.6768267,181.503488 C89.9575156,185.087488 80.2870933,186.879488 69.6679378,186.879488 L2.37682667,186.879488 L2.37682667,2.559488 L69.6679378,2.559488 Z" id="Fill-1" fill="#A9DFCE" mask="url(#mask-2)"></path>
                </g>
                <path d="M199.266576,108.287488 C199.316509,102.519808 199.549531,97.584128 199.953753,93.590528 C200.405531,89.128448 201.08082,85.590528 201.95822,83.076608 C202.72862,80.859648 203.672598,79.328768 204.759242,78.527488 C205.869664,77.710848 207.258287,77.311488 209.003576,77.311488 C210.639487,77.311488 212.028109,77.695488 213.252664,78.483968 C214.353576,79.198208 215.295176,80.657408 216.051309,82.820608 C216.928709,85.337088 217.60162,88.875008 218.053398,93.334528 C218.459998,97.361408 218.69302,102.381568 218.740576,108.287488 L199.266576,108.287488 Z M209.003576,43.007488 C200.174887,43.007488 191.992953,44.620288 184.690798,47.804928 C177.341087,51.002368 171.01382,55.651328 165.884953,61.621248 C160.767976,67.578368 156.756664,75.030528 153.967531,83.775488 C151.199798,92.443648 149.796909,102.412288 149.796909,113.407488 L149.796909,120.831488 C149.796909,143.085568 155.256287,160.560128 166.025242,172.768768 C176.822731,185.020928 192.480398,191.231488 212.570242,191.231488 C218.155642,191.231488 223.303531,191.013888 227.875998,190.586368 C232.476998,190.153728 237.018553,189.411328 241.379398,188.377088 C245.711709,187.345408 250.158153,185.996288 254.597464,184.363008 C258.965442,182.750208 263.785198,180.715008 268.921198,178.316288 L270.942309,177.371648 L270.221842,175.131648 L259.99502,143.290368 L259.13902,140.622848 L256.756487,141.800448 C249.335442,145.463808 242.613464,148.034048 236.780776,149.436928 C230.952842,150.842368 225.529131,151.551488 220.654687,151.551488 C217.496998,151.551488 214.619887,151.267328 212.104198,150.701568 C209.773976,150.179328 207.738598,149.209088 206.052753,147.813888 C204.402576,146.449408 203.013953,144.357888 201.917798,141.595648 C200.983331,139.243008 200.269998,136.229888 199.792064,132.607488 L265.832464,132.607488 L268.210242,132.607488 L268.210242,130.047488 L268.210242,113.407488 C268.210242,91.181568 263.002909,73.722368 252.733287,61.513728 C242.401842,49.233408 227.688153,43.007488 209.003576,43.007488 Z M196.876909,110.847488 L221.130242,110.847488 C221.130242,103.679488 220.892464,97.753088 220.419287,93.055488 C219.941353,88.363008 219.230398,84.653568 218.276909,81.919488 C217.325798,79.193088 216.056064,77.311488 214.474842,76.287488 C212.886487,75.263488 211.062731,74.751488 209.003576,74.751488 C206.782731,74.751488 204.920931,75.307008 203.415798,76.415488 C201.905909,77.526528 200.681353,79.446528 199.730242,82.175488 C198.779131,84.907008 198.065798,88.619008 197.590242,93.311488 C197.114687,98.006528 196.876909,103.853568 196.876909,110.847488 Z M209.003576,45.567488 C227.074687,45.567488 241.063153,51.455488 250.971353,63.231488 C260.877176,75.007488 265.832464,91.737088 265.832464,113.407488 L265.832464,130.047488 L197.114687,130.047488 C197.590242,135.223808 198.460509,139.406848 199.730242,142.599168 C200.997598,145.791488 202.62162,148.203008 204.604687,149.843968 C206.585376,151.484928 208.922731,152.603648 211.619131,153.207808 C214.313153,153.811968 217.325798,154.111488 220.654687,154.111488 C225.726487,154.111488 231.273842,153.387008 237.299131,151.935488 C243.322042,150.486528 250.141509,147.883008 257.74802,144.127488 L267.974842,175.966208 C262.898287,178.339328 258.183153,180.333568 253.824687,181.941248 C249.461464,183.546368 245.145798,184.859648 240.865798,185.875968 C236.585798,186.892288 232.186909,187.611648 227.669131,188.036608 C223.151353,188.459008 218.117598,188.671488 212.570242,188.671488 C193.074842,188.671488 178.128131,182.783488 167.749131,171.007488 C157.365376,159.231488 152.174687,142.507008 152.174687,120.831488 L152.174687,113.407488 C152.174687,102.655488 153.520509,93.055488 156.219287,84.607488 C158.910931,76.159488 162.715376,69.081088 167.630242,63.359488 C172.542731,57.643008 178.527598,53.247488 185.582464,50.175488 C192.634953,47.103488 200.443576,45.567488 209.003576,45.567488 Z" id="Fill-4" fill="#A9DFCE"></path>
                <path d="M336.690004,43.007488 C317.244538,43.007488 301.788982,49.212928 290.758471,61.449728 C279.742227,73.660928 274.154449,91.143168 274.154449,113.407488 L274.154449,121.599488 C274.154449,143.853568 279.656627,161.330688 290.506427,173.547008 C301.38476,185.791488 316.445604,191.999488 335.263338,191.999488 C351.401316,191.999488 364.633649,188.000768 374.596538,180.110848 C384.647404,172.154368 391.238604,159.254528 394.194182,141.769728 L394.619804,139.255808 L392.284827,138.795008 L349.484827,130.347008 L347.019071,129.858048 L346.698071,132.533248 C345.373649,143.487488 343.706827,148.095488 342.541716,150.030848 C341.077004,152.465408 339.215204,153.599488 336.690004,153.599488 C335.101649,153.599488 333.791493,153.202688 332.683449,152.386048 C331.599182,151.589888 330.662338,150.025728 329.891938,147.734528 C329.009782,145.128448 328.329738,141.498368 327.87796,136.944128 C327.414293,132.287488 327.178893,126.350848 327.178893,119.295488 L327.178893,115.711488 C327.178893,108.645888 327.376249,102.693888 327.763827,98.019328 C328.137138,93.493248 328.772004,89.875968 329.649404,87.275008 C330.419804,84.996608 331.363782,83.376128 332.376716,82.585088 C333.396782,81.794048 334.654627,81.407488 336.214449,81.407488 C339.410182,81.407488 341.378982,82.748928 342.594027,85.759488 C344.061116,89.394688 345.033627,95.815168 345.49016,104.844288 L345.63996,107.734528 L348.286427,107.222528 L392.03516,98.777088 L394.286916,98.341888 L393.970671,95.904768 C391.678493,78.105088 385.681738,64.688128 376.151604,56.027648 C366.630982,47.387648 353.355849,43.007488 336.690004,43.007488 M336.690004,45.567488 C352.858893,45.567488 365.496782,49.707008 374.61556,57.983488 C383.729582,66.262528 389.395827,79.019008 391.616671,96.255488 L347.86556,104.703488 C347.390004,95.321088 346.355671,88.662528 344.774449,84.735488 C343.186093,80.813568 340.335138,78.847488 336.214449,78.847488 C334.152916,78.847488 332.410004,79.403008 330.983338,80.511488 C329.556671,81.622528 328.367782,83.583488 327.416671,86.399488 C326.46556,89.215488 325.790271,93.017088 325.39556,97.791488 C324.998471,102.573568 324.801116,108.543488 324.801116,115.711488 L324.801116,119.295488 C324.801116,126.463488 325.038893,132.441088 325.514449,137.215488 C325.990004,141.995008 326.703338,145.791488 327.654449,148.607488 C328.60556,151.423488 329.830116,153.387008 331.340004,154.495488 C332.845138,155.606528 334.628471,156.159488 336.690004,156.159488 C340.018893,156.159488 342.634449,154.582528 344.536671,151.423488 C346.438893,148.267008 347.941649,142.079488 349.054449,132.863488 L391.854449,141.311488 C389.001116,158.207488 382.778471,170.457088 373.188893,178.047488 C363.59456,185.643008 350.956671,189.439488 335.263338,189.439488 C317.030538,189.439488 302.687782,183.551488 292.22556,171.775488 C281.763338,159.999488 276.532227,143.275008 276.532227,121.599488 L276.532227,113.407488 C276.532227,91.737088 281.841804,75.007488 292.463338,63.231488 C303.080116,51.455488 317.822338,45.567488 336.690004,45.567488" id="Fill-6" fill="#A9DFCE"></path>
                <path d="M460.569136,156.16 C458.821469,156.16 457.435224,155.7632 456.32718,154.944 C455.245291,154.14784 454.303691,152.58624 453.530913,150.29248 C452.651136,147.6864 451.975847,144.05632 451.519313,139.50464 C451.055647,134.848 450.820247,128.9088 450.820247,121.856 L450.820247,113.152 C450.820247,106.10176 451.055647,100.16512 451.519313,95.50592 C451.975847,90.94912 452.651136,87.31904 453.530913,84.71552 C454.303691,82.42432 455.245291,80.86016 456.324802,80.06656 C457.437602,79.24736 458.826224,78.848 460.569136,78.848 C462.309669,78.848 463.700669,79.24736 464.818224,80.06656 C465.89298,80.86272 466.836958,82.42688 467.609736,84.71552 C468.489513,87.31904 469.164802,90.94912 469.621336,95.50592 C470.085002,100.18816 470.320402,106.1248 470.320402,113.152 L470.320402,121.856 C470.320402,128.88832 470.085002,134.82496 469.621336,139.50464 C469.16718,144.05632 468.489513,147.6864 467.609736,150.29248 C466.83458,152.58368 465.89298,154.14784 464.815847,154.944 C463.703047,155.76064 462.314424,156.16 460.569136,156.16 M460.569136,43.008 C440.807424,43.008 425.23298,49.21344 414.273802,61.45536 C403.34078,73.66656 397.79818,91.14624 397.79818,113.408 L397.79818,121.6 C397.79818,143.8592 403.34078,161.33888 414.273802,173.55264 C425.23298,185.79456 440.807424,192 460.569136,192 C480.330847,192 495.905291,185.79456 506.864469,173.55264 C517.797491,161.33888 523.342469,143.8592 523.342469,121.6 L523.342469,113.408 C523.342469,91.1488 517.797491,73.66912 506.864469,61.45536 C495.905291,49.21344 480.330847,43.008 460.569136,43.008 M460.569136,158.72 C462.78998,158.72 464.649402,158.16704 466.159291,157.056 C467.662047,155.94752 468.891358,153.984 469.842469,151.168 C470.795958,148.352 471.509291,144.55552 471.984847,139.776 C472.458024,134.99904 472.69818,129.024 472.69818,121.856 L472.69818,113.152 C472.69818,105.984 472.458024,100.01152 471.984847,95.232 C471.509291,90.45504 470.795958,86.656 469.842469,83.84 C468.891358,81.024 467.662047,79.06304 466.159291,77.952 C464.649402,76.84352 462.78998,76.288 460.569136,76.288 C458.348291,76.288 456.486491,76.84352 454.981358,77.952 C453.473847,79.06304 452.246913,81.024 451.29818,83.84 C450.344691,86.656 449.631358,90.45504 449.155802,95.232 C448.680247,100.01152 448.442469,105.984 448.442469,113.152 L448.442469,121.856 C448.442469,129.024 448.680247,134.99904 449.155802,139.776 C449.631358,144.55552 450.344691,148.352 451.29818,151.168 C452.246913,153.984 453.473847,155.94752 454.981358,157.056 C456.486491,158.16704 458.348291,158.72 460.569136,158.72 M460.569136,45.568 C479.748291,45.568 494.609402,51.456 505.152469,63.232 C515.695536,75.008 520.964691,91.73504 520.964691,113.408 L520.964691,121.6 C520.964691,143.27552 515.695536,160 505.152469,171.776 C494.609402,183.552 479.748291,189.44 460.569136,189.44 C441.38998,189.44 426.528869,183.552 415.985802,171.776 C405.442736,160 400.175958,143.27552 400.175958,121.6 L400.175958,113.408 C400.175958,91.73504 405.442736,75.008 415.985802,63.232 C426.528869,51.456 441.38998,45.568 460.569136,45.568" id="Fill-8" fill="#A9DFCE"></path>
                <path d="M761.592473,45.567488 L759.214696,45.567488 L710.945807,45.567488 L708.568029,45.567488 L708.568029,48.127488 L708.568029,147.647488 C705.381807,149.219328 702.30734,150.015488 699.411207,150.015488 C696.303451,150.015488 694.201496,149.206528 692.984073,147.539968 C691.65014,145.707008 690.972473,142.750208 690.972473,138.751488 L690.972473,48.127488 L690.972473,45.567488 L688.594696,45.567488 L640.325807,45.567488 L637.948029,45.567488 L637.948029,48.127488 L637.948029,150.783488 C637.948029,164.523008 640.713384,174.791168 646.170384,181.298688 C651.684451,187.890688 659.397962,191.231488 669.096918,191.231488 C673.103473,191.231488 676.924562,190.683648 680.448429,189.598208 C683.972296,188.512768 687.491407,186.828288 690.903518,184.585728 C694.298984,182.353408 697.761029,179.391488 701.192162,175.784448 C703.560429,173.301248 706.028562,170.421248 708.568029,167.195648 L708.568029,188.927488 L708.568029,191.807488 L711.224007,191.469568 L759.492896,185.325568 L761.592473,185.059328 L761.592473,182.783488 L761.592473,48.127488 L761.592473,45.567488 Z M759.214696,48.127488 L759.214696,182.783488 L710.945807,188.927488 L710.945807,161.279488 L709.994696,161.279488 C706.347184,166.233088 702.861362,170.457088 699.530096,173.951488 C696.203584,177.453568 692.910362,180.267008 689.664696,182.399488 C686.414273,184.537088 683.125807,186.111488 679.796918,187.135488 C676.468029,188.159488 672.901362,188.671488 669.096918,188.671488 C660.061362,188.671488 653.006496,185.643008 647.934696,179.583488 C642.85814,173.526528 640.325807,163.926528 640.325807,150.783488 L640.325807,48.127488 L688.594696,48.127488 L688.594696,138.751488 C688.594696,143.359488 689.434051,146.815488 691.11514,149.119488 C692.796229,151.423488 695.559207,152.575488 699.411207,152.575488 C703.094384,152.575488 706.941629,151.467008 710.945807,149.247488 L710.945807,48.127488 L759.214696,48.127488 Z" id="Fill-10" fill="#A9DFCE"></path>
                <path d="M823.888349,43.2 L821.232371,43.53792 L772.963482,49.68192 L770.863904,49.94816 L770.863904,52.224 L770.863904,186.88 L770.863904,189.44 L773.241682,189.44 L821.510571,189.44 L823.888349,189.44 L823.888349,186.88 L823.888349,87.07072 C826.596638,85.69088 829.307304,84.992 831.970416,84.992 C835.030616,84.992 837.099282,85.80096 838.30006,87.45984 C839.622104,89.2928 840.292638,92.25216 840.292638,96.256 L840.292638,186.88 L840.292638,189.44 L842.670416,189.44 L890.941682,189.44 L893.31946,189.44 L893.31946,186.88 L893.31946,87.07072 C896.025371,85.69088 898.738416,84.992 901.403904,84.992 C904.461727,84.992 906.530393,85.80096 907.731171,87.45984 C909.053216,89.2928 909.726127,92.25216 909.726127,96.256 L909.726127,186.88 L909.726127,189.44 L912.103904,189.44 L960.370416,189.44 L962.748193,189.44 L962.748193,186.88 L962.748193,84.224 C962.748193,70.49728 959.992349,60.23168 954.559127,53.71392 C949.052193,47.11936 941.360082,43.776 931.701549,43.776 C927.697371,43.776 923.92146,44.32896 920.483193,45.41696 C917.049682,46.5024 913.654216,48.19712 910.389527,50.45248 C907.181904,52.67968 903.862527,55.63648 900.516993,59.24864 C897.818216,62.16192 894.948238,65.61792 891.954616,69.55776 C890.330593,61.46304 887.210949,55.24736 882.657504,51.0464 C877.416882,46.22336 870.556993,43.776 862.270438,43.776 C858.268638,43.776 854.497482,44.32896 851.056838,45.41696 C847.618571,46.5024 844.225482,48.19712 840.963171,50.45248 C837.755549,52.67712 834.433793,55.63392 831.083504,59.24864 C828.793704,61.7216 826.385016,64.58112 823.888349,67.78368 L823.888349,46.08 L823.888349,43.2 Z M821.510571,46.08 L821.510571,73.728 L822.459304,73.728 C826.094927,68.77952 829.528438,64.55552 832.766971,61.056 C836.007882,57.55904 839.165571,54.74304 842.249549,52.608 C845.328771,50.47552 848.48646,48.896 851.727371,47.872 C854.965904,46.848 858.48026,46.336 862.270438,46.336 C870.012482,46.336 876.292193,48.55552 881.109571,52.992 C885.926949,57.4336 888.968127,64.34304 890.235482,73.728 L891.892793,73.728 C895.526038,68.77952 898.957171,64.55552 902.20046,61.056 C905.438993,57.55904 908.596682,54.74304 911.675904,52.608 C914.757504,50.47552 917.915193,48.896 921.153727,47.872 C924.394638,46.848 927.908993,46.336 931.701549,46.336 C940.703816,46.336 947.732527,49.36704 952.79006,55.424 C957.842838,61.48352 960.370416,71.08352 960.370416,84.224 L960.370416,186.88 L912.103904,186.88 L912.103904,96.256 C912.103904,91.648 911.271682,88.192 909.607238,85.888 C907.942793,83.584 905.208349,82.432 901.403904,82.432 C897.915704,82.432 894.425127,83.456 890.941682,85.504 L890.941682,186.88 L842.670416,186.88 L842.670416,96.256 C842.670416,91.648 841.840571,88.192 840.176127,85.888 C838.509304,83.584 835.777238,82.432 831.970416,82.432 C828.484593,82.432 824.996393,83.456 821.510571,85.504 L821.510571,186.88 L773.241682,186.88 L773.241682,52.224 L821.510571,46.08 Z" id="Fill-12" fill="#A9DFCE"></path>
                <path d="M585.400091,43.066368 L582.739358,43.409408 L535.183802,49.553408 L533.08898,49.824768 L533.08898,52.095488 L533.08898,186.751488 L533.08898,189.311488 L535.466758,189.311488 L583.022313,189.311488 L585.400091,189.311488 L585.400091,186.751488 L585.400091,140.622848 C585.400091,113.115648 594.730491,100.850688 615.654936,100.850688 C620.686313,100.850688 623.242424,101.227008 627.879091,101.910528 L630.582624,102.309888 L630.582624,99.376128 L630.582624,49.174528 L630.582624,46.965248 L628.55438,46.640128 L628.368913,46.611968 C625.434736,46.138368 623.31138,45.797888 618.919624,45.797888 C604.336713,45.797888 592.288513,53.739008 585.402469,67.235328 L585.400091,45.951488 L585.400091,43.066368 Z M583.022313,45.951488 L583.027069,81.195008 C587.632824,60.016128 602.123002,48.357888 618.919624,48.357888 C623.22578,48.357888 625.232624,48.695808 628.204847,49.174528 L628.204847,99.376128 C623.449291,98.674688 620.774291,98.290688 615.654936,98.290688 C597.441158,98.290688 583.022313,106.992128 583.022313,140.622848 L583.022313,186.751488 L535.466758,186.751488 L535.466758,52.095488 L583.022313,45.951488 Z" id="Fill-14" fill="#A9DFCE"></path>
            </g>
        </g>
    </g>
</svg>