<?xml version="1.0" encoding="UTF-8"?>
<svg width="1410px" height="250px" viewBox="0 0 1410 250" version="1.1" xmlns="http://www.w3.org/2000/svg" xmlns:xlink="http://www.w3.org/1999/xlink">
    <!-- Generator: Sketch 52.5 (67469) - http://www.bohemiancoding.com/sketch -->
    <title>Artboard</title>
    <desc>Created with Sketch.</desc>
    <defs>
        <polygon id="path-1" points="0.469364303 0.2171875 125.71002 0.2171875 125.71002 201.245056 0.469364303 201.245056"></polygon>
        <polygon id="path-3" points="0.0131139364 0.0494875 117.579247 0.0494875 117.579247 149.186987 0.0131139364 149.186987"></polygon>
    </defs>
    <g id="Artboard" stroke="none" stroke-width="1" fill="none" fill-rule="evenodd">
        <g id="Group-17" transform="translate(218.000000, 23.000000)">
            <path d="M140.976556,9.5963375 L93.6860225,9.5963375 L91.3094944,9.5963375 L91.3094944,12.1588375 L91.3094944,88.9774625 L53.7294553,10.977525 L53.0616509,9.5963375 L51.6190983,9.5963375 L3.37557751,9.5963375 L0.999049389,9.5963375 L0.999049389,12.1588375 L0.999049389,196.658837 L0.999049389,199.221337 L3.37557751,199.221337 L50.4308342,199.221337 L52.8073623,199.221337 L52.8073623,196.658837 L52.8073623,110.55115 L95.2664137,197.847837 L95.9365946,199.221337 L97.3743941,199.221337 L140.976556,199.221337 L143.353084,199.221337 L143.353084,196.658837 L143.353084,12.1588375 L143.353084,9.5963375 L140.976556,9.5963375 Z M93.6860225,97.4900875 L93.6860225,12.1588375 L140.976556,12.1588375 L140.976556,196.658837 L97.3743941,196.658837 L51.383822,102.102587 L50.4308342,102.102587 L50.4308342,196.658837 L3.37557751,196.658837 L3.37557751,12.1588375 L51.6190983,12.1588375 L92.7330347,97.4900875 L93.6860225,97.4900875 Z" id="Fill-1" fill="#A9DFCE"></path>
            <g id="Group-16" transform="translate(155.474328, 0.345569)">
                <path d="M124.05049,54.8619875 L121.673962,54.8619875 L73.4304411,54.8619875 L71.053913,54.8619875 L71.053913,57.4244875 L71.053913,157.041675 C67.8693653,158.61505 64.7965144,159.411987 61.9019032,159.411987 C58.7957809,159.411987 56.6949301,158.602237 55.4781477,156.93405 C54.1449154,155.0993 53.4676049,152.139612 53.4676049,148.136987 L53.4676049,57.4244875 L53.4676049,54.8619875 L51.0910768,54.8619875 L2.84755599,54.8619875 L0.471027873,54.8619875 L0.471027873,57.4244875 L0.471027873,160.180737 C0.471027873,173.933675 3.23493007,184.211862 8.6890621,190.725737 C14.2002308,197.324175 21.909688,200.668237 31.6035462,200.668237 C35.6079961,200.668237 39.4270768,200.119862 42.9490914,199.033362 C46.4711061,197.946862 49.9883677,196.260737 53.3986856,194.015987 C56.7923677,191.781487 60.2525927,188.816675 63.6842993,185.206112 C66.0465682,182.720487 68.5157809,179.837675 71.053913,176.606362 L71.053913,198.361987 L71.053913,201.2448 L73.7084949,200.90655 L121.952016,194.75655 L124.05049,194.49005 L124.05049,192.211987 L124.05049,57.4244875 L124.05049,54.8619875 Z M121.673962,57.4244875 L121.673962,192.211987 L73.4304411,198.361987 L73.4304411,170.686987 L72.4798298,170.686987 C68.8342357,175.645425 65.3502455,179.87355 62.0207296,183.371362 C58.6959667,186.876862 55.4044753,189.69305 52.1605144,191.827612 C48.9118005,193.9673 45.6250621,195.543237 42.2979227,196.568237 C38.9707834,197.593237 35.4059912,198.105737 31.6035462,198.105737 C22.5727394,198.105737 15.5215804,195.0743 10.452446,189.008862 C5.37855844,182.945987 2.84755599,173.336612 2.84755599,160.180737 L2.84755599,57.4244875 L51.0910768,57.4244875 L51.0910768,148.136987 C51.0910768,152.749487 51.9299912,156.208862 53.6101966,158.515112 C55.290402,160.821362 58.0519276,161.974487 61.9019032,161.974487 C65.5831452,161.974487 69.4283677,160.864925 73.4304411,158.643237 L73.4304411,57.4244875 L121.673962,57.4244875 Z" id="Fill-2" fill="#A9DFCE"></path>
                <path d="M191.066919,52.4909063 L188.412337,52.8291563 L140.168817,58.9791563 L138.070342,59.2482188 L138.070342,61.5237188 L138.070342,196.311219 L138.070342,198.873719 L140.44687,198.873719 L188.690391,198.873719 L191.066919,198.873719 L191.066919,196.311219 L191.066919,96.4070313 C193.771408,95.0258438 196.483027,94.3262813 199.144738,94.3262813 C202.20333,94.3262813 204.27091,95.1334688 205.471056,96.7965313 C206.792406,98.6287188 207.462587,101.590969 207.462587,105.601281 L207.462587,196.311219 L207.462587,198.873719 L209.839115,198.873719 L258.085012,198.873719 L260.46154,198.873719 L260.46154,196.311219 L260.46154,96.4070313 C263.166029,95.0258438 265.877648,94.3262813 268.541736,94.3262813 C271.597951,94.3262813 273.665531,95.1334688 274.865677,96.7965313 C276.187027,98.6287188 276.859584,101.590969 276.859584,105.601281 L276.859584,196.311219 L276.859584,198.873719 L279.236112,198.873719 L327.477257,198.873719 L329.853785,198.873719 L329.853785,196.311219 L329.853785,93.5549688 C329.853785,79.8148438 327.099389,69.5392188 321.669022,63.0150938 C316.167359,56.4140938 308.479291,53.0700313 298.823457,53.0700313 C294.821384,53.0700313 291.049834,53.6209688 287.610998,54.7100313 C284.181667,55.7965313 280.785609,57.4929063 277.525012,59.7530313 C274.316699,61.9798438 270.999066,64.9420938 267.655291,68.5577813 C264.957932,71.4713438 262.089462,74.9332813 259.097413,78.8744063 C257.474244,70.7717813 254.358616,64.5500313 249.805188,60.3475313 C244.56732,55.5172188 237.711037,53.0700313 229.428836,53.0700313 C225.429139,53.0700313 221.657589,53.6209688 218.22113,54.7100313 C214.787046,55.7965313 211.393364,57.4929063 208.132768,59.7530313 C204.926831,61.9772813 201.606822,64.9369688 198.258293,68.5577813 C195.969697,71.0305938 193.562274,73.8954688 191.066919,77.1011563 L191.066919,55.3737188 L191.066919,52.4909063 Z M188.690391,55.3737188 L188.690391,83.0487188 L189.638626,83.0487188 C193.272337,78.0979688 196.704044,73.8698438 199.940875,70.3669063 C203.180083,66.8665313 206.336112,64.0477813 209.418469,61.9080938 C212.496073,59.7760938 215.652103,58.1950313 218.891311,57.1700313 C222.128142,56.1424688 225.64065,55.6325313 229.428836,55.6325313 C237.166812,55.6325313 243.443222,57.8542188 248.258068,62.2950313 C253.072914,66.7384063 256.112494,73.6571563 257.379183,83.0487188 L259.035623,83.0487188 C262.666958,78.0979688 266.096289,73.8698438 269.337873,70.3669063 C272.574704,66.8665313 275.730733,64.0477813 278.808337,61.9080938 C281.888318,59.7760938 285.044347,58.1950313 288.281178,57.1700313 C291.520386,56.1424688 295.032895,55.6325313 298.823457,55.6325313 C307.820993,55.6325313 314.84601,58.6665313 319.900885,64.7268438 C324.951007,70.7948438 327.477257,80.4042188 327.477257,93.5549688 L327.477257,196.311219 L279.236112,196.311219 L279.236112,105.601281 C279.236112,100.986219 278.404328,97.5294063 276.740758,95.2205938 C275.077188,92.9143438 272.344181,91.7637813 268.541736,91.7637813 C265.055369,91.7637813 261.566626,92.7887813 258.085012,94.8362188 L258.085012,196.311219 L209.839115,196.311219 L209.839115,105.601281 C209.839115,100.986219 209.009707,97.5294063 207.346137,95.2205938 C205.680191,92.9143438 202.94956,91.7637813 199.144738,91.7637813 C195.660748,91.7637813 192.174381,92.7887813 188.690391,94.8362188 L188.690391,196.311219 L140.44687,196.311219 L140.44687,61.5237188 L188.690391,55.3737188 Z" id="Fill-4" fill="#A9DFCE"></path>
                <g id="Group-8" transform="translate(342.220049, 0.000000)">
                    <mask id="mask-2" fill="white">
                        <use xlink:href="#path-1"></use>
                    </mask>
                    <g id="Clip-7"></g>
                    <path d="M63.3261565,162.743494 C62.2899902,162.743494 59.1458435,162.743494 56.5174034,155.986181 C54.4926015,150.784306 53.4659413,141.074994 53.4659413,127.124744 C53.4659413,113.002806 54.4926015,103.160244 56.5221565,97.8661188 C59.1553496,90.9934938 62.2947433,90.9934938 63.3261565,90.9934938 C64.3646993,90.9934938 67.5183521,90.9934938 70.2561125,97.8968688 C72.3617164,103.188431 73.426401,113.023306 73.426401,127.124744 C73.426401,141.054494 72.3640929,150.753556 70.2632421,155.955431 C67.5302347,162.743494 64.3646993,162.743494 63.3261565,162.743494 Z M53.4659413,0.21693125 L50.8089829,0.55518125 L2.56783863,6.70518125 L0.469364303,6.97168125 L0.469364303,9.24974375 L0.469364303,192.212244 L0.469364303,194.490306 L2.56783863,194.756806 L50.8089829,200.906806 L53.4659413,201.245056 L53.4659413,198.362244 L53.4659413,180.757869 C57.1566895,186.151931 60.9828998,190.538931 64.8708998,193.841994 C70.2038289,198.372494 77.1979511,200.668494 85.6583912,200.668494 C98.4037115,200.668494 108.430284,194.441619 115.460054,182.154431 C122.261677,170.264431 125.71002,153.041869 125.71002,130.968494 L125.71002,122.768494 C125.71002,100.710494 122.39001,83.5033063 115.837922,71.6184313 C109.050557,59.3107438 98.9004059,53.0684938 85.6583912,53.0684938 C78.0035941,53.0684938 71.3326797,55.4054938 65.8405232,60.0154313 C61.7243765,63.4722438 57.5749584,67.9924938 53.4659413,73.4967438 L53.4659413,3.09974375 L53.4659413,0.21693125 Z M63.3261565,165.305994 C67.1666259,165.305994 70.2062054,162.530806 72.4425183,156.977869 C74.6812078,151.427494 75.8029291,141.474744 75.8029291,127.124744 C75.8029291,112.608181 74.6812078,102.524744 72.4425183,96.8872438 C70.2062054,91.2497438 67.1666259,88.4309938 63.3261565,88.4309938 C59.4880636,88.4309938 56.4865086,91.2497438 54.3262445,96.8872438 C52.1659804,102.524744 51.0894132,112.608181 51.0894132,127.124744 C51.0894132,141.474744 52.1659804,151.427494 54.3262445,156.977869 C56.4865086,162.530806 59.4880636,165.305994 63.3261565,165.305994 Z M51.0894132,3.09974375 L51.0894132,79.7184938 L52.0376479,79.7184938 C57.1257946,72.2026813 62.2115648,66.3089313 67.2997115,62.0372438 C72.3878582,57.7706813 78.5074181,55.6309938 85.6583912,55.6309938 C98.0567384,55.6309938 107.439271,61.3966188 113.794108,72.9278688 C120.15132,84.4591188 123.333491,101.076931 123.333491,122.768494 L123.333491,130.968494 C123.333491,152.665181 120.032494,169.277869 113.437628,180.809119 C106.840386,192.340369 97.5790562,198.105994 85.6583912,198.105994 C77.7089046,198.105994 71.27089,196.014994 66.3443472,191.827869 C61.4130513,187.643306 56.6457359,181.705994 52.0376479,174.018494 L51.0894132,174.018494 L51.0894132,198.362244 L2.84589242,192.212244 L2.84589242,9.24974375 L51.0894132,3.09974375 Z" id="Fill-6" fill="#A9DFCE" mask="url(#mask-2)"></path>
                </g>
                <path d="M523.790124,117.643237 C523.840031,111.869925 524.070555,106.929425 524.476941,102.931925 C524.928481,98.4654875 525.603415,94.9241125 526.480354,92.4077375 C527.250349,90.1886125 528.193831,88.6562375 529.279904,87.854175 C530.389743,87.0367375 531.775259,86.6369875 533.522007,86.6369875 C535.157058,86.6369875 536.544951,87.0213625 537.768863,87.8106125 C538.869195,88.52555 539.8103,89.986175 540.568413,92.1514875 C541.442975,94.670425 542.115533,98.2118 542.567073,102.675675 C542.973459,106.706487 543.203982,111.73155 543.253889,117.643237 L523.790124,117.643237 Z M533.522007,52.2994875 C524.697958,52.2994875 516.520325,53.9138625 509.222007,57.1016125 C501.876158,60.302175 495.552217,64.955675 490.426046,70.931425 C485.311757,76.8943625 481.302555,84.3538 478.517264,93.1073 C475.750985,101.783925 474.346457,111.7623 474.346457,122.768237 L474.346457,130.199487 C474.346457,152.4753 479.802965,169.966925 490.568638,182.187487 C501.360452,194.451612 517.009889,200.668237 537.086799,200.668237 C542.669264,200.668237 547.816823,200.450425 552.384511,200.022487 C556.983092,199.589425 561.522261,198.8463 565.878437,197.81105 C570.210848,196.778362 574.654956,195.427925 579.089557,193.79305 C583.457616,192.178675 588.274838,190.141487 593.408139,187.740425 L595.428188,186.794862 L594.7081,184.552675 L584.486652,152.6803 L583.631102,150.010175 L581.249821,151.188925 C573.832677,154.855862 567.111855,157.428612 561.284608,158.832862 C555.462114,160.239675 550.038877,160.949487 545.166995,160.949487 C542.010965,160.949487 539.135366,160.66505 536.621,160.098737 C534.292002,159.575987 532.257694,158.6048 530.572735,157.208237 C528.925801,155.842425 527.533156,153.748862 526.439953,150.983925 C525.505978,148.628987 524.793019,145.612925 524.317713,141.986987 L590.321029,141.986987 L592.697557,141.986987 L592.697557,139.424487 L592.697557,122.768237 C592.697557,100.520612 587.495337,83.0443625 577.228735,70.8238 C566.905097,58.5314875 552.196765,52.2994875 533.522007,52.2994875 Z M521.401713,120.205737 L545.6423,120.205737 C545.6423,113.030737 545.404647,107.09855 544.931718,102.396362 C544.454036,97.6993 543.743454,93.9862375 542.790467,91.2494875 C541.839855,88.520425 540.570789,86.6369875 538.990398,85.6119875 C537.402877,84.5869875 535.58008,84.0744875 533.522007,84.0744875 C531.30233,84.0744875 529.441508,84.63055 527.937166,85.7401125 C526.42807,86.8522375 525.204158,88.7741125 524.253547,91.5057375 C523.302936,94.239925 522.589978,97.95555 522.114672,102.652612 C521.639366,107.352237 521.401713,113.204987 521.401713,120.205737 Z M533.522007,54.8619875 C551.583621,54.8619875 565.564735,60.7557375 575.467728,72.5432375 C585.368344,84.3307375 590.321029,101.076675 590.321029,122.768237 L590.321029,139.424487 L521.639366,139.424487 C522.114672,144.605862 522.984481,148.792987 524.253547,151.988425 C525.520237,155.183862 527.143405,157.597737 529.12543,159.2403 C531.105078,160.882862 533.441205,162.002675 536.136188,162.607425 C538.828794,163.212175 541.839855,163.511987 545.166995,163.511987 C550.236129,163.511987 555.780569,162.7868 561.802691,161.333862 C567.822437,159.883487 574.63832,157.277425 582.240833,153.518237 L592.462281,185.38805 C587.388393,187.763487 582.675738,189.759675 578.319562,191.368925 C573.958633,192.975612 569.645234,194.290175 565.367484,195.307487 C561.089733,196.3248 556.693156,197.044862 552.177753,197.470237 C547.662349,197.89305 542.631239,198.105737 537.086799,198.105737 C517.601645,198.105737 502.662789,192.211987 492.289244,180.424487 C481.910946,168.636987 476.722985,151.896175 476.722985,130.199487 L476.722985,122.768237 C476.722985,112.005737 478.0681,102.396362 480.765459,93.9401125 C483.455689,85.4838625 487.258134,78.39855 492.170418,72.6713625 C497.080325,66.9493 503.062046,62.5494875 510.113205,59.4744875 C517.161987,56.3994875 524.966506,54.8619875 533.522007,54.8619875 Z" id="Fill-9" fill="#A9DFCE"></path>
                <g id="Group-13" transform="translate(699.699267, 52.250000)">
                    <mask id="mask-4" fill="white">
                        <use xlink:href="#path-3"></use>
                    </mask>
                    <g id="Clip-12"></g>
                    <path d="M61.2562435,0.0494875 C53.6394709,0.0494875 46.4338377,1.0283625 39.8389721,2.957925 C33.1466689,4.9208 27.274268,7.9548 22.3857496,11.977925 C17.4473242,16.0343625 13.5046641,21.110675 10.6623364,27.0633625 C7.80574963,33.041675 6.35606748,40.073175 6.35606748,47.9682375 C6.35606748,59.835175 9.75450269,70.0159875 16.4539355,78.2313625 C23.0796958,86.362175 34.6700235,92.7914875 50.9112166,97.3424875 C55.8710308,98.7262375 59.6758523,99.8844875 62.5419452,100.888988 C65.3058474,101.85505 67.4732411,102.815988 68.989466,103.748738 C70.6744244,104.78655 71.2495443,105.539925 71.442043,105.896113 C71.7842631,106.523925 71.95062,107.192738 71.95062,107.930738 C71.95062,109.199175 71.95062,113.055738 61.2562435,113.055738 C55.9161848,113.055738 50.1673633,111.579738 44.1690064,108.668738 C38.222933,105.783363 33.0135834,101.21955 28.6859257,95.1028625 L27.0532509,92.7966125 L25.1330161,94.8261125 L1.60301125,119.682363 L0.0131139364,121.363363 L1.46754914,123.182738 C7.51343667,130.765175 15.3322142,137.058675 24.700488,141.89155 C34.0901506,146.732113 45.9918034,149.186988 60.0679795,149.186988 C68.6187276,149.186988 76.4921653,148.213238 83.4696518,146.2888 C90.5517056,144.336175 96.6712655,141.302175 101.654845,137.271363 C106.685955,133.202113 110.640498,128.112988 113.406777,122.144925 C116.175432,116.171738 117.57996,109.063363 117.57996,101.011988 C117.57996,88.5787375 113.908224,78.3133625 106.66219,70.5003 C99.5801359,62.8666125 87.8638523,56.69355 71.8412998,52.1528 C67.3068841,50.9766125 63.6327716,49.8388625 60.8783756,48.7626125 C58.1810161,47.71455 56.0825418,46.7074875 54.6399892,45.772175 C53.1118817,44.788175 52.631823,44.0476125 52.4821017,43.6939875 C52.1493878,42.9149875 51.9877839,42.133425 51.9877839,41.3057375 C51.9877839,39.8707375 52.4987374,38.750925 53.6014465,37.787425 C54.8063462,36.7368 57.0450357,36.1807375 60.0679795,36.1807375 C64.7212215,36.1807375 69.0251139,37.2877375 72.8608303,39.4709875 C76.760713,41.6978 80.9576616,45.7132375 85.3304733,51.399425 L86.9774073,53.541675 L88.8239697,51.594175 L112.351598,26.737925 L113.851187,25.1517375 L112.577368,23.3528625 C107.277711,15.85755 100.285965,10.030425 91.7970064,6.0278 C83.3698377,2.06105 73.0937301,0.0494875 61.2562435,0.0494875 M61.2562435,2.6119875 C72.8180528,2.6119875 82.683021,4.5338625 90.8440186,8.3776125 C99.0026396,12.2213625 105.614141,17.7307375 110.688028,24.9057375 L87.1580235,49.7619875 C82.5641946,43.783675 78.1652411,39.601675 73.9706689,37.2057375 C69.7713438,34.814925 65.1371139,33.6182375 60.0679795,33.6182375 C56.4223853,33.6182375 53.77018,34.34855 52.1042337,35.7963625 C50.4430406,37.2518625 49.6112557,39.0866125 49.6112557,41.3057375 C49.6112557,42.502425 49.8489086,43.6581125 50.3218377,44.7651125 C50.7995198,45.8798 51.82618,46.9432375 53.4137007,47.9682375 C54.9940919,48.9932375 57.2161457,50.0643625 60.0679795,51.1713625 C62.9198132,52.28605 66.6414562,53.4366125 71.2376616,54.6307375 C86.9227472,59.076675 98.1684782,64.9678625 104.981984,72.3119875 C111.79549,79.658675 115.203432,89.2244875 115.203432,101.011987 C115.203432,108.699487 113.893965,115.361987 111.28216,120.999487 C108.667979,126.636987 104.981984,131.377612 100.228928,135.221362 C95.4758719,139.065112 89.693779,141.927425 82.8826494,143.805737 C76.0667667,145.68405 68.4618768,146.624487 60.0679795,146.624487 C46.2841164,146.624487 34.8363804,144.274675 25.7271482,139.577612 C16.6155394,134.88055 9.12709927,128.861237 3.26895746,121.511987 L26.7965858,96.6557375 C31.3904147,103.149112 36.8540528,107.930737 43.1922533,111.005737 C49.5280773,114.080737 55.552576,115.618237 61.2562435,115.618237 C69.9662191,115.618237 74.3271482,113.055737 74.3271482,107.930737 C74.3271482,106.739175 74.0490944,105.624487 73.4929868,104.599487 C72.9368792,103.574487 71.8317936,102.549487 70.168224,101.524487 C68.5046543,100.499487 66.2065516,99.4744875 63.2762924,98.4494875 C60.3412802,97.4244875 56.4223853,96.232925 51.5101017,94.8619875 C35.6657888,90.4237375 24.574532,84.3173 18.2387081,76.5401125 C11.9005076,68.76805 8.7325956,59.2432375 8.7325956,47.9682375 C8.7325956,40.4549875 10.080087,33.8744875 12.7750699,28.2369875 C15.4652998,22.5994875 19.1489183,17.8588625 23.8259257,14.0151125 C28.49818,10.1713625 34.0449966,7.3116125 40.4616225,5.4307375 C46.8782484,3.552425 53.8058279,2.6119875 61.2562435,2.6119875" id="Fill-11" fill="#A9DFCE" mask="url(#mask-4)"></path>
                </g>
                <path d="M655.48543,52.4870625 L652.826095,52.8304375 L605.295533,58.9804375 L603.201811,59.2520625 L603.201811,61.525 L603.201811,196.3125 L603.201811,198.875 L605.578339,198.875 L653.108902,198.875 L655.48543,198.875 L655.48543,196.3125 L655.48543,150.138812 C655.48543,122.607312 664.813303,110.327812 685.724374,110.327812 C690.75786,110.327812 693.310251,110.7045 697.944481,111.39125 L700.644217,111.788437 L700.644217,108.851812 L700.644217,58.598625 L700.644217,56.3923125 L698.619415,56.0643125 L698.438799,56.036125 C695.50141,55.564625 693.379171,55.22125 688.987347,55.22125 C674.414476,55.22125 662.372608,63.170125 655.490183,76.679625 L655.48543,55.375 L655.48543,52.4870625 Z M653.108902,55.375 L653.113655,90.6529375 C657.71699,69.453375 672.199552,57.78375 688.987347,57.78375 C693.291239,57.78375 695.297029,58.122 698.267689,58.598625 L698.267689,108.851812 C693.514633,108.149687 690.841039,107.765312 685.724374,107.765312 C667.520168,107.765312 653.108902,116.47525 653.108902,150.138812 L653.108902,196.3125 L605.578339,196.3125 L605.578339,61.525 L653.108902,55.375 Z" id="Fill-14" fill="#A9DFCE"></path>
            </g>
        </g>
    </g>
</svg>