<?xml version="1.0" encoding="UTF-8"?>
<svg width="1410px" height="250px" viewBox="0 0 1410 250" version="1.1" xmlns="http://www.w3.org/2000/svg" xmlns:xlink="http://www.w3.org/1999/xlink">
    <!-- Generator: Sketch 52.5 (67469) - http://www.bohemiancoding.com/sketch -->
    <title>Artboard</title>
    <desc>Created with Sketch.</desc>
    <defs>
        <polygon id="path-1" points="0 0.771296842 145.737292 0.771296842 145.737292 195.457613 0 195.457613"></polygon>
        <polygon id="path-3" points="0.966797485 0.192888421 126.241596 0.192888421 126.241596 195.2 0.966797485 195.2"></polygon>
        <polygon id="path-5" points="0.203564217 0.192888421 125.478363 0.192888421 125.478363 195.2 0.203564217 195.2"></polygon>
        <polygon id="path-7" points="0.436527466 0.703747368 108.835754 0.703747368 108.835754 195.713427 0.436527466 195.713427"></polygon>
    </defs>
    <g id="Artboard" stroke="none" stroke-width="1" fill="none" fill-rule="evenodd" opacity="0.5">
        <g id="Group-23" transform="translate(92.000000, 3.000000)">
            <g id="Group-3" transform="translate(0.000000, 0.864931)">
                <mask id="mask-2" fill="white">
                    <use xlink:href="#path-1"></use>
                </mask>
                <g id="Clip-2"></g>
                <path d="M73.2334238,0.771296842 C52.4783,0.771296842 35.9735669,6.11104421 24.1756424,16.6415705 C12.2469731,27.2953811 6.19706015,42.6083074 6.19706015,62.15656 C6.19706015,70.4371495 7.15506209,77.8727284 9.04491702,84.2552547 C10.9680524,90.7687705 14.2342923,96.6376126 18.7485495,101.694834 C23.2223948,106.708392 29.2247642,111.084981 36.5916327,114.706455 C43.834888,118.273992 52.9489809,121.397192 63.6795534,123.993865 C70.4093387,125.683886 75.9600447,127.227507 80.1676462,128.57336 C84.2611433,129.885823 87.5036114,131.241949 89.8047178,132.600644 C92.4243658,134.157107 93.5772961,135.45416 94.0788803,136.268349 C94.7682613,137.385613 95.1034431,138.685234 95.1034431,140.23656 C95.1034431,143.295549 93.9481356,145.501823 91.4663638,147.176434 C88.6969538,149.048813 83.6834896,149.99656 76.5614702,149.99656 C69.2088648,149.99656 62.053565,148.103634 55.2976308,144.371718 C48.4228377,140.575592 41.835683,135.212728 35.7120776,128.42696 L34.0456772,126.577697 L32.341242,128.391002 L1.67804855,161.009949 L-0.000237717602,162.795002 L1.63763656,164.623718 C6.32067331,169.85816 11.2295418,174.458202 16.2334973,178.290286 C21.280242,182.163465 26.845211,185.415086 32.7762652,187.955255 C38.6978106,190.497992 45.1779925,192.406328 52.0480311,193.626328 C58.8942981,194.841192 66.6605321,195.457613 75.1351646,195.457613 C97.43783,195.457613 114.917205,190.35416 127.093101,180.291086 C139.463925,170.061065 145.737292,154.509276 145.737292,134.072349 C145.737292,126.320855 144.822079,119.196055 143.015426,112.893149 C141.165983,106.451549 137.940155,100.621234 133.423521,95.5614442 C128.959184,90.5632968 122.885499,86.1045179 115.366491,82.3032547 C107.96872,78.5713389 98.5432168,75.18616 87.3467178,72.2453179 C80.4695476,70.5604337 74.9117101,68.9423284 70.7896868,67.4295284 C66.7770137,65.9578232 63.6629132,64.4861179 61.5305863,63.0555074 C59.1153754,61.4348337 58.1288474,60.1583284 57.7247275,59.3723916 C57.1233019,58.2088968 56.8332865,57.0197179 56.8332865,55.7355074 C56.8332865,52.7972337 57.867358,50.6526021 60.0923948,48.9831284 C62.5242458,47.1569811 66.5464277,46.2323495 72.0448358,46.2323495 C77.6644799,46.2323495 83.1890369,47.6552547 88.4687449,50.4625389 C93.8506714,53.3314653 99.4536752,57.7234653 105.118486,63.5075495 L106.784886,65.2104126 L108.420383,63.4715916 L139.085954,30.8526442 L140.828424,29.0008126 L139.062182,27.1720968 C134.861712,22.8109179 130.530497,18.9248968 126.187397,15.6219074 C121.770604,12.2675495 116.837963,9.44485474 111.527352,7.23601263 C106.238136,5.03744421 100.395037,3.39365474 94.1644586,2.34317053 C87.9719151,1.30039158 80.9307197,0.771296842 73.2334238,0.771296842 M73.2334238,3.33971789 C80.840387,3.33971789 87.6937855,3.85340211 93.7959963,4.88077053 C99.89583,5.90813895 105.522606,7.49285474 110.673946,9.63234947 C115.822909,11.7744126 120.539226,14.4712547 124.818143,17.7228758 C129.09706,20.9770653 133.295153,24.7449389 137.417176,29.0239284 L106.753983,61.6428758 C100.887112,55.6507495 95.1414779,51.1560126 89.5194567,48.1586653 C83.8903039,45.1638863 78.0662226,43.6639284 72.0448358,43.6639284 C66.0210718,43.6639284 61.5876385,44.73496 58.7326501,46.8744547 C55.8800389,49.0165179 54.4561104,51.9702021 54.4561104,55.7355074 C54.4561104,57.4486442 54.8483445,59.0744547 55.6446985,60.6155074 C56.4339209,62.15656 57.9790853,63.6976126 60.2778145,65.2386653 C62.5741665,66.7797179 65.8237662,68.3207705 70.0242362,69.8618232 C74.222329,71.4028758 79.8086926,73.0312547 86.7833271,74.7418232 C97.8752304,77.6544126 107.06777,80.9496968 114.358569,84.6302442 C121.646991,88.31336 127.433037,92.5512547 131.714331,97.3439284 C135.990871,102.139171 139.000375,107.576518 140.745223,113.653402 C142.487693,119.732855 143.360116,126.539171 143.360116,134.072349 C143.360116,153.764434 137.455211,168.489192 125.650155,178.249192 C113.842722,188.009192 97.0051839,192.889192 75.1351646,192.889192 C66.7342246,192.889192 59.1676733,192.285613 52.4331337,191.091297 C45.6962168,189.894413 39.4371124,188.052855 33.6558203,185.569192 C27.8673967,183.088097 22.5187507,179.962328 17.6098822,176.194455 C12.6938822,172.429149 7.93953017,167.975507 3.34682611,162.838665 L34.0100195,130.219718 C40.3475708,137.241781 47.0844876,142.720223 54.2160157,146.657613 C61.3475437,150.597571 68.7952362,152.564981 76.5614702,152.564981 C84.1708106,152.564981 89.5551143,151.496518 92.7262671,149.354455 C95.8950427,147.21496 97.4806191,144.176518 97.4806191,140.23656 C97.4806191,138.181823 97.0051839,136.383928 96.0566907,134.842876 C95.1034431,133.301823 93.3990079,131.804434 90.9433851,130.348139 C88.4853851,128.894413 85.1193039,127.481781 80.840387,126.110244 C76.5614702,124.741276 71.0107642,123.200223 64.2001549,121.487086 C53.5813097,118.918665 44.7073116,115.880223 37.5757836,112.369192 C30.4442555,108.860728 24.7414103,104.707592 20.4601162,99.9123495 C16.1811994,95.1196758 13.1289054,89.6386653 11.3079886,83.4744547 C9.48469458,77.3102442 8.57423617,70.2059916 8.57423617,62.15656 C8.57423617,43.3223284 14.2794586,28.8107495 25.6899035,18.6218232 C37.1003484,8.43546526 52.9466037,3.33971789 73.2334238,3.33971789" id="Fill-1" fill="#C0E7DB" mask="url(#mask-2)"></path>
            </g>
            <path d="M276.957884,49.6649305 L274.580708,49.6649305 L226.324035,49.6649305 L223.946859,49.6649305 L223.946859,52.2333516 L223.946859,152.08072 C220.761443,153.657731 217.687754,154.456509 214.792354,154.456509 C211.685385,154.456509 209.583961,153.644888 208.366847,151.972846 C207.033251,150.133857 206.355756,147.167331 206.355756,143.155457 L206.355756,52.2333516 L206.355756,49.6649305 L203.97858,49.6649305 L155.721907,49.6649305 L153.344731,49.6649305 L153.344731,52.2333516 L153.344731,155.227036 C153.344731,169.011752 156.109387,179.313688 161.565006,185.842615 C167.077677,192.456299 174.789236,195.808088 184.485737,195.808088 C188.491278,195.808088 192.3114,195.258446 195.834375,194.169436 C199.35735,193.080425 202.87557,191.390404 206.286818,189.140467 C209.681425,186.900804 213.142594,183.929141 216.572859,180.310236 C218.940526,177.818867 221.408035,174.929394 223.946859,171.693183 L223.946859,193.496509 L223.946859,196.385983 L226.602164,196.046952 L274.858837,189.882741 L276.957884,189.615625 L276.957884,187.332299 L276.957884,52.2333516 L276.957884,49.6649305 Z M274.580708,52.2333516 L274.580708,187.332299 L226.324035,193.496509 L226.324035,165.757562 L225.373164,165.757562 C221.726576,170.727457 218.241636,174.965352 214.911213,178.471246 C211.585543,181.984846 208.293155,184.807541 205.048309,186.947036 C201.79871,189.091667 198.511075,190.671246 195.183029,191.698615 C191.854982,192.725983 188.289218,193.239667 184.485737,193.239667 C175.452468,193.239667 168.399387,190.201225 163.32887,184.121773 C158.253599,178.044888 155.721907,168.413309 155.721907,155.227036 L155.721907,52.2333516 L203.97858,52.2333516 L203.97858,143.155457 C203.97858,147.778615 204.817723,151.245983 206.498387,153.557562 C208.17905,155.869141 210.941329,157.024931 214.792354,157.024931 C218.474599,157.024931 222.32087,155.912804 226.324035,153.685983 L226.324035,52.2333516 L274.580708,52.2333516 Z" id="Fill-4" fill="#C0E7DB"></path>
            <g id="Group-8" transform="translate(285.261122, 47.096509)">
                <mask id="mask-4" fill="white">
                    <use xlink:href="#path-3"></use>
                </mask>
                <g id="Clip-7"></g>
                <path d="M63.8407259,110.699204 C62.8066544,110.699204 59.6592733,110.699204 57.0301166,103.926278 C55.0023855,98.7123832 53.9778226,88.9780674 53.9778226,74.9981516 C53.9778226,60.8435832 55.0047627,50.9782779 57.034871,45.67192 C59.668782,38.7834147 62.8090315,38.7834147 63.8407259,38.7834147 C64.8795518,38.7834147 68.0340644,38.7834147 70.7749484,45.7027411 C72.8787491,51.0065305 73.943724,60.8641305 73.943724,74.9981516 C73.943724,88.9600884 72.8787491,98.6815621 70.7797027,103.895457 C68.0459503,110.699204 64.8795518,110.699204 63.8407259,110.699204 Z M53.9778226,0.192888421 L51.3201398,0.53192 L3.06584391,6.69613053 L0.966797485,6.96324632 L0.966797485,9.24657263 L0.966797485,192.631836 L0.966797485,195.200257 L3.3439735,195.200257 L51.6006466,195.200257 L53.9778226,195.200257 L53.9778226,192.631836 L53.9778226,128.755204 C57.6719542,134.161731 61.4968304,138.558867 65.3882675,141.869562 C70.7202733,146.410531 77.7163023,148.711836 86.1790489,148.711836 C98.9302211,148.711836 108.95715,142.470573 115.988836,130.154994 C122.792314,118.23752 126.241596,100.975162 126.241596,78.8507832 L126.241596,70.6318358 C126.241596,48.5228674 122.920681,31.27592 116.366807,19.3635832 C109.57997,7.02745684 99.4222965,0.770783158 86.1790489,0.770783158 C78.522165,0.770783158 71.8518091,3.11318316 66.3557781,7.73377263 C62.2361321,11.1985726 58.08796,15.7292674 53.9778226,21.2462358 L53.9778226,3.08236211 L53.9778226,0.192888421 Z M63.8407259,113.267625 C67.6822424,113.267625 70.7226505,110.486025 72.9595731,104.920257 C75.1988729,99.3570568 76.3209,89.3813095 76.3209,74.9981516 C76.3209,60.4480463 75.1988729,50.3413095 72.9595731,44.6907832 C70.7226505,39.0402568 67.6822424,36.2149937 63.8407259,36.2149937 C60.0015867,36.2149937 56.9992133,39.0402568 54.8383603,44.6907832 C52.6775074,50.3413095 51.6006466,60.4480463 51.6006466,74.9981516 C51.6006466,89.3813095 52.6775074,99.3570568 54.8383603,104.920257 C56.9992133,110.486025 60.0015867,113.267625 63.8407259,113.267625 Z M51.6006466,3.08236211 L51.6006466,27.4823621 L52.5491398,27.4823621 C57.6386737,19.9491832 62.7258304,14.0418147 67.8153642,9.76025684 C72.9048981,5.48383579 79.0261263,3.33920421 86.1790489,3.33920421 C98.5807762,3.33920421 107.965867,9.11815158 114.322436,20.6760463 C120.681382,32.2339411 123.86442,48.8901516 123.86442,70.6318358 L123.86442,78.8507832 C123.86442,100.597604 120.562523,117.248678 113.965859,128.806573 C107.366819,140.364467 98.1029638,146.143415 86.1790489,146.143415 C78.2273952,146.143415 71.7876253,144.047583 66.8597395,139.850783 C61.9270992,135.656552 57.1584841,129.70552 52.5491398,122.000257 L51.6006466,122.000257 L51.6006466,192.631836 L3.3439735,192.631836 L3.3439735,9.24657263 L51.6006466,3.08236211 Z" id="Fill-6" fill="#C0E7DB" mask="url(#mask-4)"></path>
            </g>
            <g id="Group-11" transform="translate(421.760155, 47.096509)">
                <mask id="mask-6" fill="white">
                    <use xlink:href="#path-5"></use>
                </mask>
                <g id="Clip-10"></g>
                <path d="M63.0774926,110.699204 C62.0434211,110.699204 58.89604,110.699204 56.2668834,103.926278 C54.2391522,98.7123832 53.2145894,88.9780674 53.2145894,74.9981516 C53.2145894,60.8435832 54.2415294,50.9782779 56.2716377,45.67192 C58.9055487,38.7834147 62.0457983,38.7834147 63.0774926,38.7834147 C64.1163186,38.7834147 67.2708311,38.7834147 70.0117151,45.7027411 C72.1155159,51.0065305 73.1804907,60.8641305 73.1804907,74.9981516 C73.1804907,88.9600884 72.1155159,98.6815621 70.0164694,103.895457 C67.282717,110.699204 64.1163186,110.699204 63.0774926,110.699204 Z M53.2145894,0.192888421 L50.5569066,0.53192 L2.30261064,6.69613053 L0.203564217,6.96324632 L0.203564217,9.24657263 L0.203564217,192.631836 L0.203564217,195.200257 L2.58074023,195.200257 L50.8374133,195.200257 L53.2145894,195.200257 L53.2145894,192.631836 L53.2145894,128.755204 C56.9087209,134.161731 60.7335971,138.558867 64.6250342,141.869562 C69.95704,146.410531 76.9530691,148.711836 85.4158157,148.711836 C98.1669878,148.711836 108.193916,142.470573 115.225603,130.154994 C122.029081,118.23752 125.478363,100.975162 125.478363,78.8507832 L125.478363,70.6318358 C125.478363,48.5228674 122.157448,31.27592 115.603574,19.3635832 C108.816736,7.02745684 98.6590632,0.770783158 85.4158157,0.770783158 C77.7589317,0.770783158 71.0885758,3.11318316 65.5925449,7.73377263 C61.4728988,11.1985726 57.3247267,15.7292674 53.2145894,21.2462358 L53.2145894,3.08236211 L53.2145894,0.192888421 Z M63.0774926,113.267625 C66.9190091,113.267625 69.9594172,110.486025 72.1963398,104.920257 C74.4356397,99.3570568 75.5576667,89.3813095 75.5576667,74.9981516 C75.5576667,60.4480463 74.4356397,50.3413095 72.1963398,44.6907832 C69.9594172,39.0402568 66.9190091,36.2149937 63.0774926,36.2149937 C59.2383534,36.2149937 56.2359801,39.0402568 54.0751271,44.6907832 C51.9142741,50.3413095 50.8374133,60.4480463 50.8374133,74.9981516 C50.8374133,89.3813095 51.9142741,99.3570568 54.0751271,104.920257 C56.2359801,110.486025 59.2383534,113.267625 63.0774926,113.267625 Z M50.8374133,3.08236211 L50.8374133,27.4823621 L51.7859066,27.4823621 C56.8754404,19.9491832 61.9625971,14.0418147 67.0521309,9.76025684 C72.1416648,5.48383579 78.262893,3.33920421 85.4158157,3.33920421 C97.8175429,3.33920421 107.202634,9.11815158 113.559203,20.6760463 C119.918148,32.2339411 123.101187,48.8901516 123.101187,70.6318358 L123.101187,78.8507832 C123.101187,100.597604 119.79929,117.248678 113.202626,128.806573 C106.603585,140.364467 97.3397306,146.143415 85.4158157,146.143415 C77.4641619,146.143415 71.0243921,144.047583 66.0965062,139.850783 C61.163866,135.656552 56.3952509,129.70552 51.7859066,122.000257 L50.8374133,122.000257 L50.8374133,192.631836 L2.58074023,192.631836 L2.58074023,9.24657263 L50.8374133,3.08236211 Z" id="Fill-9" fill="#C0E7DB" mask="url(#mask-6)"></path>
            </g>
            <path d="M616.413389,160.621234 C614.666165,160.621234 613.280271,160.223128 612.172507,159.401234 C611.090892,158.602455 610.14953,157.035718 609.376948,154.734413 C608.497393,152.11976 607.822275,148.477739 607.365857,143.911086 C606.902308,139.239128 606.666967,133.280392 606.666967,126.204392 L606.666967,117.47176 C606.666967,110.398328 606.902308,104.44216 607.365857,99.7676337 C607.822275,95.1958442 608.497393,91.5538232 609.376948,88.9417389 C610.14953,86.6430021 611.090892,85.0736968 612.17013,84.2749179 C613.282648,83.4555916 614.670919,83.0549179 616.413389,83.0549179 C618.153482,83.0549179 619.54413,83.4555916 620.661403,84.2774863 C621.735886,85.0762653 622.679625,86.6455705 623.452207,88.9417389 C624.331762,91.5538232 625.00688,95.1958442 625.463298,99.7676337 C625.926847,104.465276 626.162188,110.421444 626.162188,117.47176 L626.162188,126.204392 C626.162188,133.259844 625.926847,139.216013 625.463298,143.911086 C625.009257,148.477739 624.331762,152.11976 623.452207,154.734413 C622.677248,157.033149 621.735886,158.602455 620.659025,159.401234 C619.546507,160.223128 618.158236,160.621234 616.413389,160.621234 M616.413389,47.0970232 C596.656679,47.0970232 581.086176,53.3254442 570.129772,65.6050653 C559.199517,77.8564337 553.658319,95.3936126 553.658319,117.728602 L553.658319,125.947549 C553.658319,148.279971 559.199517,165.817149 570.129772,178.071086 C581.086176,190.353276 596.656679,196.579128 616.413389,196.579128 C636.170099,196.579128 651.740602,190.353276 662.697006,178.071086 C673.627261,165.814581 679.170836,148.279971 679.170836,125.947549 L679.170836,117.728602 C679.170836,95.3961811 673.627261,77.8590021 662.697006,65.6050653 C651.740602,53.3254442 636.170099,47.0970232 616.413389,47.0970232 M616.413389,163.189655 C618.633671,163.189655 620.492623,162.634876 622.00213,161.520181 C623.504505,160.408055 624.733505,158.438076 625.684375,155.612813 C626.637623,152.787549 627.350776,148.978581 627.826211,144.183339 C628.299269,139.390665 628.539364,133.395971 628.539364,126.204392 L628.539364,117.47176 C628.539364,110.280181 628.299269,104.288055 627.826211,99.4928126 C627.350776,94.7001389 626.637623,90.8886021 625.684375,88.0633389 C624.733505,85.2380758 623.504505,83.2706653 622.00213,82.1559705 C620.492623,81.0438442 618.633671,80.4864968 616.413389,80.4864968 C614.193107,80.4864968 612.331778,81.0438442 610.827025,82.1559705 C609.319896,83.2706653 608.093273,85.2380758 607.14478,88.0633389 C606.191532,90.8886021 605.478379,94.7001389 605.002944,99.4928126 C604.527509,104.288055 604.289791,110.280181 604.289791,117.47176 L604.289791,126.204392 C604.289791,133.395971 604.527509,139.390665 605.002944,144.183339 C605.478379,148.978581 606.191532,152.787549 607.14478,155.612813 C608.093273,158.438076 609.319896,160.408055 610.827025,161.520181 C612.331778,162.634876 614.193107,163.189655 616.413389,163.189655 M616.413389,49.6654442 C635.587691,49.6654442 650.445041,55.5728126 660.985439,67.3875495 C671.525838,79.2022863 676.79366,95.9843495 676.79366,117.728602 L676.79366,125.947549 C676.79366,147.694371 671.525838,164.473865 660.985439,176.288602 C650.445041,188.103339 635.587691,194.010707 616.413389,194.010707 C597.239087,194.010707 582.381737,188.103339 571.841339,176.288602 C561.30094,164.473865 556.035495,147.694371 556.035495,125.947549 L556.035495,117.728602 C556.035495,95.9843495 561.30094,79.2022863 571.841339,67.3875495 C582.381737,55.5728126 597.239087,49.6654442 616.413389,49.6654442" id="Fill-12" fill="#C0E7DB"></path>
            <g id="Group-16" transform="translate(787.845261, 0.864931)">
                <mask id="mask-8" fill="white">
                    <use xlink:href="#path-7"></use>
                </mask>
                <g id="Clip-15"></g>
                <path d="M74.3667015,0.703490526 L71.7066416,1.04509053 L23.9254037,7.21186947 L21.8311116,7.48155368 L21.8311116,9.75974316 L21.8311116,49.3134274 L2.81370348,49.3134274 L0.436527466,49.3134274 L0.436527466,51.8818484 L0.436527466,86.5555326 L0.436527466,89.1239537 L2.81370348,89.1239537 L21.8311116,89.1239537 L21.8311116,154.711154 C21.8311116,168.190227 25.1971928,178.512712 31.8318911,185.390943 C38.4451948,192.240922 48.9951019,195.713427 63.1939743,195.713427 C71.4023631,195.713427 79.0925275,194.873554 86.0528988,193.214354 C93.0037615,191.555154 100.192342,188.950775 107.423711,185.475701 L108.835754,184.797638 L108.835754,183.128164 L108.835754,145.372375 L108.835754,141.365638 L105.464918,143.03768 C99.7739588,145.86808 95.0719046,147.802101 91.4871232,148.793512 C87.9760342,149.761806 84.6931542,150.252375 81.7359472,150.252375 C79.2161406,150.252375 77.4071097,149.592291 76.2018814,148.231027 C74.9657499,146.838943 74.3667015,144.825301 74.3667015,142.074522 L74.3667015,89.1239537 L104.081402,89.1239537 L106.458578,89.1239537 L106.458578,86.5555326 L106.458578,51.8818484 L106.458578,49.3134274 L104.081402,49.3134274 L74.3667015,49.3134274 L74.3667015,3.59553263 L74.3667015,0.703490526 Z M71.9895255,3.59553263 L71.9895255,51.8818484 L104.081402,51.8818484 L104.081402,86.5555326 L71.9895255,86.5555326 L71.9895255,142.074522 C71.9895255,145.485385 72.8215371,148.130859 74.4855603,150.008375 C76.1495836,151.885891 78.5647944,152.820796 81.7359472,152.820796 C84.9047228,152.820796 88.351628,152.307112 92.0766629,151.279743 C95.7993205,150.252375 100.594085,148.284964 106.458578,145.372375 L106.458578,183.128164 C99.3270497,186.557006 92.3500381,189.079196 85.5394288,190.705006 C78.7240652,192.330817 71.2763727,193.145006 63.1939743,193.145006 C49.5608698,193.145006 39.6599317,189.942185 33.4792741,183.539112 C27.2986164,177.133469 24.2082876,167.525006 24.2082876,154.711154 L24.2082876,86.5555326 L2.81370348,86.5555326 L2.81370348,51.8818484 L24.2082876,51.8818484 L24.2082876,9.75974316 L71.9895255,3.59553263 Z" id="Fill-14" fill="#C0E7DB" mask="url(#mask-8)"></path>
            </g>
            <path d="M1105.63122,3.94754947 L1103.25404,3.94754947 L1054.28422,3.94754947 L1051.90704,3.94754947 L1051.90704,6.51597053 L1051.90704,122.865444 C1051.90704,132.386581 1050.64952,139.200602 1048.16299,143.117444 C1045.84287,146.772307 1042.2462,148.549655 1037.16855,148.549655 C1032.06475,148.549655 1028.37775,146.754328 1025.90074,143.060939 C1023.28109,139.164644 1021.95463,132.368602 1021.95463,122.865444 L1021.95463,6.51597053 L1021.95463,3.94754947 L1019.57745,3.94754947 L968.230447,3.94754947 L965.853271,3.94754947 L965.853271,6.51597053 L965.853271,120.810707 C965.853271,133.886539 967.460242,145.369949 970.629018,154.937318 C973.831074,164.609992 978.506979,172.677402 984.535497,178.913528 C990.55213,185.152223 997.983182,189.803634 1006.62422,192.736771 C1015.13688,195.626244 1024.85478,197.092813 1035.50453,197.092813 C1046.1519,197.092813 1055.90783,195.628813 1064.49894,192.739339 C1073.21367,189.806202 1080.68989,185.154792 1086.71603,178.913528 C1092.73266,172.677402 1097.45136,164.617697 1100.72948,154.957865 C1103.98384,145.382792 1105.63122,133.894244 1105.63122,120.810707 L1105.63122,6.51597053 L1105.63122,3.94754947 Z M1103.25404,6.51597053 L1103.25404,120.810707 C1103.25404,133.652813 1101.66847,144.740686 1098.49969,154.07176 C1095.32854,163.405402 1090.85232,171.067002 1085.07103,177.059128 C1079.2826,183.053823 1072.19149,187.461234 1063.79292,190.286497 C1055.39198,193.11176 1045.9641,194.524392 1035.50453,194.524392 C1025.04733,194.524392 1015.65511,193.11176 1007.33499,190.286497 C999.014877,187.461234 991.961795,183.053823 986.178126,177.059128 C980.389703,171.067002 975.956269,163.405402 972.86594,154.07176 C969.777989,144.740686 968.230447,133.652813 968.230447,120.810707 L968.230447,6.51597053 L1019.57745,6.51597053 L1019.57745,122.865444 C1019.57745,132.969613 1021.04179,140.202286 1023.97522,144.568602 C1026.90628,148.934918 1031.30406,151.118076 1037.16855,151.118076 C1043.03067,151.118076 1047.35,148.934918 1050.12416,144.568602 C1052.89357,140.202286 1054.28422,132.969613 1054.28422,122.865444 L1054.28422,6.51597053 L1103.25404,6.51597053 Z" id="Fill-17" fill="#C0E7DB"></path>
            <path d="M1170.28851,47.0965095 C1162.66966,47.0965095 1155.46206,48.0776463 1148.8654,50.0116674 C1142.17127,51.9790779 1136.29727,55.0200884 1131.40742,59.0525095 C1126.46764,63.11832 1122.52391,68.2063621 1119.68081,74.1728042 C1116.82344,80.1623621 1115.37336,87.2126779 1115.37336,95.1259832 C1115.37336,107.020341 1118.77273,117.224678 1125.47398,125.461604 C1132.10155,133.608636 1143.69742,140.052804 1159.94304,144.61432 C1164.90183,146.001267 1168.70531,147.162194 1171.57456,148.169015 C1174.33921,149.137309 1176.5072,150.100467 1178.02384,151.035373 C1179.70926,152.075583 1180.28453,152.830699 1180.47946,153.187709 C1180.8194,153.816973 1180.9858,154.487331 1180.9858,155.227036 C1180.9858,156.498404 1180.9858,160.363878 1170.28851,160.363878 C1164.94699,160.363878 1159.1966,158.884467 1153.19661,155.966741 C1147.24892,153.074699 1142.03577,148.500341 1137.70931,142.36952 L1136.07619,140.057941 L1134.15543,142.092131 L1110.61901,167.005815 L1109.02868,168.690699 L1110.48351,170.514278 C1116.53105,178.114236 1124.35196,184.422278 1133.72279,189.26632 C1143.11738,194.118067 1155.01991,196.578615 1169.09992,196.578615 C1177.653,196.578615 1185.52621,195.600046 1192.51035,193.673731 C1199.59433,191.716594 1205.71318,188.675583 1210.7005,184.635457 C1215.73298,180.556804 1219.68622,175.45592 1222.45326,169.474067 C1225.22267,163.487078 1226.62758,156.362278 1226.62758,148.292299 C1226.62758,135.83032 1222.95246,125.541225 1215.70683,117.710109 C1208.62285,110.058783 1196.90337,103.871457 1180.87645,99.3202147 C1176.3408,98.1413095 1172.66568,97.0009305 1169.90816,95.9221937 C1167.21244,94.8717095 1165.11339,93.86232 1163.67045,92.9248463 C1162.1443,91.9385726 1161.66174,91.1962989 1161.51197,90.8418568 C1161.17917,90.0610568 1161.01752,89.2776884 1161.01752,88.4480884 C1161.01752,87.0097726 1161.52861,85.8873726 1162.63162,84.9216463 C1163.83923,83.8685937 1166.07615,83.3112463 1169.09992,83.3112463 C1173.75205,83.3112463 1178.0595,84.4208042 1181.89626,86.6090989 C1185.79958,88.8410568 1189.99767,92.8632042 1194.36692,98.5650989 L1196.01668,100.712299 L1197.86375,98.7602989 L1221.39779,73.8466147 L1222.89779,72.2567621 L1221.62362,70.4537305 C1216.32252,62.9410989 1209.32887,57.1005095 1200.8376,53.0886358 C1192.40813,49.11272 1182.12922,47.0965095 1170.28851,47.0965095 M1170.28851,49.6649305 C1181.85347,49.6649305 1191.72113,51.5912463 1199.88435,55.4438779 C1208.04519,59.2965095 1214.6585,64.8186147 1219.73377,72.0101937 L1196.19735,96.9238779 C1191.60227,90.9317516 1187.20211,86.7400884 1183.0064,84.3386147 C1178.80593,81.9422779 1174.17044,80.7428253 1169.09992,80.7428253 C1165.45333,80.7428253 1162.8004,81.4748253 1161.134,82.9259832 C1159.47236,84.3848463 1158.64034,86.2238358 1158.64034,88.4480884 C1158.64034,89.6475411 1158.87806,90.8058989 1159.35112,91.9154568 C1159.82893,93.03272 1160.85587,94.0986147 1162.44383,95.1259832 C1164.02465,96.1533516 1166.24731,97.2269516 1169.09992,98.3365095 C1171.95253,99.4537726 1175.67519,100.606994 1180.27265,101.803878 C1195.96201,106.260088 1207.2108,112.164888 1214.02617,119.525983 C1220.84153,126.889646 1224.2504,136.477562 1224.2504,148.292299 C1224.2504,155.997562 1222.94058,162.675457 1220.32806,168.325983 C1217.71317,173.976509 1214.02617,178.728088 1209.27182,182.58072 C1204.51746,186.433352 1198.73379,189.302278 1191.92081,191.184931 C1185.10307,193.067583 1177.4961,194.010194 1169.09992,194.010194 C1155.3123,194.010194 1143.86144,191.654952 1134.74973,186.947036 C1125.63563,182.23912 1118.14515,176.205899 1112.28541,168.839667 L1135.81945,143.925983 C1140.41454,150.434362 1145.87966,155.227036 1152.21959,158.309141 C1158.55714,161.391246 1164.58328,162.932299 1170.28851,162.932299 C1179.00086,162.932299 1183.36297,160.363878 1183.36297,155.227036 C1183.36297,154.03272 1183.08485,152.915457 1182.52859,151.888088 C1181.97233,150.86072 1180.86694,149.833352 1179.20292,148.805983 C1177.53889,147.778615 1175.24016,146.751246 1172.30911,145.723878 C1169.37329,144.696509 1165.45333,143.502194 1160.53971,142.128088 C1144.69108,137.679583 1133.59679,131.559036 1127.25924,123.763878 C1120.91932,115.973857 1117.75054,106.427036 1117.75054,95.1259832 C1117.75054,87.5953726 1119.0984,80.9996674 1121.79412,75.3491411 C1124.48508,69.6986147 1128.1697,64.9470358 1132.84798,61.0944042 C1137.52151,57.2417726 1143.06984,54.3754147 1149.48822,52.4901937 C1155.90659,50.6075411 1162.83606,49.6649305 1170.28851,49.6649305" id="Fill-19" fill="#C0E7DB"></path>
            <path d="M736.460778,47.1553263 L733.800718,47.4994947 L686.257197,53.6637053 L684.162905,53.9359579 L684.162905,56.2141474 L684.162905,191.313095 L684.162905,193.881516 L686.540081,193.881516 L734.083602,193.881516 L736.460778,193.881516 L736.460778,191.313095 L736.460778,145.032716 C736.460778,117.4376 745.788816,105.129726 766.707965,105.129726 C771.73807,105.129726 774.293534,105.507284 778.931404,106.195621 L781.629499,106.593726 L781.629499,103.650316 L781.629499,53.2810105 L781.629499,51.0696 L779.604145,50.7408421 L779.418726,50.7125895 C776.48529,50.24 774.362472,49.8958316 769.971828,49.8958316 C755.392608,49.8958316 743.347457,57.8630737 736.463155,71.4037895 L736.460778,50.0499368 L736.460778,47.1553263 Z M734.083602,50.0499368 L734.085979,85.4093895 C738.690569,64.1634105 753.177079,52.4642526 769.971828,52.4642526 C774.274517,52.4642526 776.280853,52.8032842 779.252323,53.2810105 L779.252323,103.650316 C774.500348,102.946568 771.823648,102.561305 766.707965,102.561305 C748.49642,102.561305 734.083602,111.291368 734.083602,145.032716 L734.083602,191.313095 L686.540081,191.313095 L686.540081,56.2141474 L734.083602,50.0499368 Z" id="Fill-21" fill="#C0E7DB"></path>
        </g>
    </g>
</svg>