<?xml version="1.0" encoding="UTF-8"?>
<svg width="1410px" height="250px" viewBox="0 0 1410 250" version="1.1" xmlns="http://www.w3.org/2000/svg" xmlns:xlink="http://www.w3.org/1999/xlink">
    <!-- Generator: Sketch 52.5 (67469) - http://www.bohemiancoding.com/sketch -->
    <title>Artboard</title>
    <desc>Created with Sketch.</desc>
    <defs>
        <polygon id="path-1" points="0.419651935 0.18885625 108.800202 0.18885625 108.800202 194.749231 0.419651935 194.749231"></polygon>
    </defs>
    <g id="Artboard" stroke="none" stroke-width="1" fill="none" fill-rule="evenodd">
        <g id="Group-20" transform="translate(122.000000, 24.000000)">
            <path d="M138.804311,9.5963375 L2.37701976,9.5963375 L0.000237678208,9.5963375 L0.000237678208,12.1588375 L0.000237678208,58.2838375 L0.000237678208,60.8463375 L2.37701976,60.8463375 L42.5446369,60.8463375 L42.5446369,196.658837 L42.5446369,199.221337 L44.9214189,199.221337 L96.2599118,199.221337 L98.6366939,199.221337 L98.6366939,196.658837 L98.6366939,60.8463375 L138.804311,60.8463375 L141.181093,60.8463375 L141.181093,58.2838375 L141.181093,12.1588375 L141.181093,9.5963375 L138.804311,9.5963375 Z M2.37701976,12.1588375 L138.804311,12.1588375 L138.804311,58.2838375 L96.2599118,58.2838375 L96.2599118,196.658837 L44.9214189,196.658837 L44.9214189,58.2838375 L2.37701976,58.2838375 L2.37701976,12.1588375 Z" id="Fill-1" fill="#C0E7DB"></path>
            <g id="Group-19" transform="translate(143.606925, 0.345569)">
                <path d="M53.1925328,0.21744375 L50.5376672,0.55569375 L2.28899104,6.70569375 L0.190292464,6.97219375 L0.190292464,9.25025625 L0.190292464,196.312756 L0.190292464,198.875256 L2.56707454,198.875256 L50.8157507,198.875256 L53.1925328,198.875256 L53.1925328,196.312756 L53.1925328,96.6955688 C56.3821743,95.1221938 59.4553536,94.3252563 62.3478974,94.3252563 C65.4472212,94.3252563 67.5506733,95.1375688 68.7675857,96.8057563 C70.1009605,98.6405063 70.7783434,101.600194 70.7783434,105.600256 L70.7783434,196.312756 L70.7783434,198.875256 L73.1551255,198.875256 L121.406178,198.875256 L123.78296,198.875256 L123.78296,196.312756 L123.78296,93.5565063 C123.78296,79.8138188 121.018763,69.5381938 115.564048,63.0115063 C110.04516,56.4156313 102.332502,53.0690063 92.6471153,53.0690063 C84.6254758,53.0690063 77.2431906,55.3137563 70.7022864,59.7391938 C65.2713393,63.4215063 59.3935572,69.2588813 53.1925328,77.1334438 L53.1925328,3.10025625 L53.1925328,0.21744375 Z M50.8157507,3.10025625 L50.8157507,83.0502563 L51.7640868,83.0502563 C59.0536774,73.1436313 65.7894778,66.0967563 71.9667344,61.9096313 C78.1487446,57.7250688 85.0390358,55.6315063 92.6471153,55.6315063 C101.67651,55.6315063 108.726046,58.6655063 113.800476,64.7283813 C118.870152,70.7938188 121.406178,80.4031938 121.406178,93.5565063 L121.406178,196.312756 L73.1551255,196.312756 L73.1551255,105.600256 C73.1551255,100.987756 72.3137446,97.5283813 70.6357365,95.2221313 C68.9529747,92.9158813 66.191154,91.7627563 62.3478974,91.7627563 C58.6638851,91.7627563 54.8206285,92.8748813 50.8157507,95.0940063 L50.8157507,196.312756 L2.56707454,196.312756 L2.56707454,9.25025625 L50.8157507,3.10025625 Z" id="Fill-2" fill="#C0E7DB"></path>
                <path d="M181.545658,117.643237 C181.59557,111.869925 181.826118,106.929425 182.232548,102.931925 C182.684136,98.4654875 183.359142,94.9241125 184.236175,92.4077375 C185.006252,90.1886125 185.949835,88.6562375 187.036024,87.854175 C188.143605,87.0367375 189.531645,86.6369875 191.27858,86.6369875 C192.913806,86.6369875 194.304224,87.0213625 195.52589,87.8106125 C196.62634,88.52555 197.567546,89.986175 198.325739,92.1514875 C199.200395,94.670425 199.873024,98.2118 200.324613,102.675675 C200.731043,106.706487 200.96159,111.73155 201.011503,117.643237 L181.545658,117.643237 Z M191.27858,52.2994875 C182.453588,52.2994875 174.277458,53.9138625 166.975984,57.1016125 C159.62935,60.302175 153.304733,64.955675 148.180391,70.931425 C143.063179,76.8943625 139.053548,84.3538 136.267959,93.1073 C133.501385,101.783925 132.096707,111.7623 132.096707,122.768237 L132.096707,130.199487 C132.096707,152.4753 137.553798,169.966925 148.320621,182.187487 C159.113588,194.451612 174.764698,200.668237 194.843753,200.668237 C200.426814,200.668237 205.574924,200.450425 210.1431,200.022487 C214.742173,199.589425 219.284203,198.8463 223.638468,197.81105 C227.971342,196.778362 232.415924,195.427925 236.851,193.79305 C241.217148,192.178675 246.037263,190.141487 251.171112,187.740425 L253.191377,186.794862 L252.471212,184.552675 L242.248672,152.6803 L241.39303,150.010175 L239.011495,151.188925 C231.593558,154.855862 224.872018,157.428612 219.041772,158.832862 C213.221032,160.239675 207.797216,160.949487 202.924812,160.949487 C199.768446,160.949487 196.89254,160.66505 194.377904,160.098737 C192.048658,159.575987 190.014132,158.6048 188.328994,157.208237 C186.681884,155.842425 185.289089,153.748862 184.19577,150.983925 C183.261694,148.628987 182.551036,145.612925 182.073303,141.986987 L248.083672,141.986987 L250.460454,141.986987 L250.460454,139.424487 L250.460454,122.768237 C250.460454,100.520612 245.257678,83.0443625 234.989979,70.8238 C224.665238,58.5314875 209.955334,52.2994875 191.27858,52.2994875 Z M179.156992,120.205737 L203.400169,120.205737 C203.400169,113.030737 203.162491,107.09855 202.689511,102.396362 C202.211778,97.6993 201.50112,93.9862375 200.54803,91.2494875 C199.597318,88.520425 198.328116,86.6369875 196.747556,85.6119875 C195.159865,84.5869875 193.336874,84.0744875 191.27858,84.0744875 C189.058666,84.0744875 187.197645,84.63055 185.693142,85.7401125 C184.183886,86.8522375 182.959843,88.7741125 182.00913,91.5057375 C181.058417,94.239925 180.345383,97.95555 179.870026,102.652612 C179.39467,107.352237 179.156992,113.204987 179.156992,120.205737 Z M191.27858,54.8619875 C209.342124,54.8619875 223.324733,60.7557375 233.228784,72.5432375 C243.130458,84.3307375 248.083672,101.076675 248.083672,122.768237 L248.083672,139.424487 L179.39467,139.424487 C179.870026,144.605862 180.739929,148.792987 182.00913,151.988425 C183.275955,155.183862 184.899297,157.597737 186.881533,159.2403 C188.861393,160.882862 191.19777,162.002675 193.893041,162.607425 C196.585935,163.212175 199.597318,163.511987 202.924812,163.511987 C207.994489,163.511987 213.539521,162.7868 219.562287,161.333862 C225.582676,159.883487 232.399287,157.277425 240.002613,153.518237 L250.225153,185.38805 C245.150723,187.763487 240.437564,189.759675 236.080922,191.368925 C231.719527,192.975612 227.405668,194.290175 223.12746,195.307487 C218.849252,196.3248 214.452205,197.044862 209.93632,197.470237 C205.420434,197.89305 200.388786,198.105737 194.843753,198.105737 C175.356517,198.105737 160.416065,192.211987 150.041411,180.424487 C139.662004,168.636987 134.473489,151.896175 134.473489,130.199487 L134.473489,122.768237 C134.473489,112.005737 135.818747,102.396362 138.516395,93.9401125 C141.206912,85.4838625 145.009764,78.39855 149.922572,72.6713625 C154.833004,66.9493 160.815364,62.5494875 167.867277,59.4744875 C174.916812,56.3994875 182.722165,54.8619875 191.27858,54.8619875 Z" id="Fill-4" fill="#C0E7DB"></path>
                <path d="M379.043651,9.25 L376.666869,9.25 L325.328376,9.25 L322.951594,9.25 L322.951594,11.8125 L322.951594,196.3125 L322.951594,198.875 L325.328376,198.875 L439.413916,198.875 L441.790698,198.875 L441.790698,196.3125 L441.790698,150.1875 L441.790698,147.625 L439.413916,147.625 L379.043651,147.625 L379.043651,11.8125 L379.043651,9.25 Z M376.666869,11.8125 L376.666869,150.1875 L439.413916,150.1875 L439.413916,196.3125 L325.328376,196.3125 L325.328376,11.8125 L376.666869,11.8125 Z" id="Fill-6" fill="#C0E7DB"></path>
                <path d="M504.298403,165.5625 C496.735482,165.5625 493.365205,162.00575 493.365205,154.03125 C493.365205,148.896 494.841187,144.842125 497.878715,141.644125 C500.678564,138.689563 506.190322,136.383313 514.280888,134.7715 L514.280888,163.427938 C512.75737,164.1685 511.352692,164.686125 510.095375,164.97825 C508.445888,165.365188 506.496926,165.5625 504.298403,165.5625 M511.428749,53.325 C500.94714,53.325 490.919497,54.87275 481.621525,57.922125 C472.401988,60.945875 462.554979,65.3585 452.344324,71.0344375 L450.35258,72.144 L451.262888,74.352875 L463.624531,104.334125 L464.644171,106.81975 L466.887853,105.56925 C475.579745,100.715875 482.866959,97.374375 488.547468,95.637 C494.163804,93.9175625 499.067106,93.04375 503.110012,93.04375 C506.889096,93.04375 509.731727,94.0098125 511.561849,95.91375 C513.391971,97.82025 514.280888,100.32125 514.280888,103.55 L514.280888,111.665438 C491.012191,113.530938 473.673566,118.351 462.718977,126.000063 C451.03947,134.151375 445.116529,145.826125 445.116529,160.69375 C445.116529,166.9975 446.100517,172.678563 448.039971,177.58575 C449.979425,182.508313 452.653305,186.682625 455.983177,189.995938 C459.294034,193.291313 463.201464,195.838438 467.596134,197.565563 C471.959906,199.285 476.630283,200.15625 481.481295,200.15625 C488.956275,200.15625 495.720597,198.508563 501.581741,195.259313 C506.832053,192.348313 512.198827,188.074063 517.55134,182.539063 C520.676808,188.017688 526.214711,192.2945 534.050961,195.269563 C542.576478,198.511125 555.437246,200.15625 572.27437,200.15625 L574.651153,200.15625 L574.651153,197.59375 L574.651153,180.16875 L574.651153,178.011125 L572.678423,177.644688 C567.25936,176.637625 565.431615,175.507563 564.823159,174.923313 C564.507047,174.620938 563.480277,173.203875 563.480277,167.6125 L563.480277,102.78125 C563.480277,85.346 559.287633,72.5821875 551.014055,64.8434375 C542.837924,57.1995 529.518438,53.325 511.428749,53.325 M504.298403,168.125 C506.675185,168.125 508.773884,167.912313 510.596876,167.484375 C512.417491,167.059 514.437755,166.246688 516.65767,165.05 L516.65767,131.7375 C506.515941,133.446688 499.69933,136.137313 496.217344,139.809375 C492.730605,143.484 490.988423,148.224625 490.988423,154.03125 C490.988423,163.427938 495.423499,168.125 504.298403,168.125 M511.428749,55.8875 C529.016937,55.8875 541.689939,59.5185625 549.457263,66.778125 C557.219833,74.04025 561.103495,86.0404375 561.103495,102.78125 L561.103495,167.6125 C561.103495,172.396688 561.816529,175.471688 563.242599,176.8375 C564.668668,178.208438 567.677674,179.315438 572.27437,180.16875 L572.27437,197.59375 C555.636896,197.59375 543.15879,196.01525 534.840053,192.853125 C526.521315,189.693563 521.090368,185.124625 518.559096,179.14375 L517.370704,179.14375 C511.666427,185.29375 506.038208,189.90625 500.495552,192.98125 C494.945766,196.05625 488.611641,197.59375 481.481295,197.59375 C476.884599,197.59375 472.527957,196.781438 468.408994,195.159375 C464.287654,193.537313 460.684452,191.1875 457.594635,188.1125 C454.504819,185.0375 452.047226,181.19375 450.226611,176.58125 C448.401242,171.96875 447.493311,166.677188 447.493311,160.69375 C447.493311,146.687125 452.997939,135.8375 464.011947,128.15 C475.023578,120.4625 492.568984,115.765438 516.65767,114.05625 L516.65767,103.55 C516.65767,99.6216875 515.507307,96.462125 513.211336,94.06875 C510.912988,91.6779375 507.542711,90.48125 503.110012,90.48125 C498.831804,90.48125 493.757375,91.378125 487.898607,93.171875 C482.035085,94.965625 474.667061,98.3404375 465.794533,103.29375 L453.435267,73.3125 C463.572242,67.675 473.200586,63.3623125 482.313169,60.371875 C491.423375,57.384 501.127776,55.8875 511.428749,55.8875" id="Fill-8" fill="#C0E7DB"></path>
                <path d="M640.963373,6.87635625 L638.303753,7.21973125 L590.530434,13.3671688 L588.436489,13.6387938 L588.436489,15.9117313 L588.436489,55.3742313 L569.422232,55.3742313 L567.04545,55.3742313 L567.04545,57.9367313 L567.04545,92.5304813 L567.04545,95.0929813 L569.422232,95.0929813 L588.436489,95.0929813 L588.436489,160.528981 C588.436489,173.976981 591.802012,184.275669 598.435611,191.138044 C605.047819,197.972231 615.595977,201.436731 629.792497,201.436731 C637.999525,201.436731 645.688415,200.598794 652.647633,198.943419 C659.597344,197.288044 666.784733,194.689669 674.014904,191.222606 L675.426713,190.546106 L675.426713,188.880481 L675.426713,151.211731 L675.426713,147.214231 L672.056436,148.882419 C666.366419,151.706294 661.665144,153.635856 658.083334,154.624981 C654.57045,155.591044 651.288114,156.080481 648.331397,156.080481 C645.812008,156.080481 644.003277,155.421919 642.795871,154.063794 C641.562322,152.674919 640.963373,150.665919 640.963373,147.921481 L640.963373,95.0929813 L670.673148,95.0929813 L673.049931,95.0929813 L673.049931,92.5304813 L673.049931,57.9367313 L673.049931,55.3742313 L670.673148,55.3742313 L640.963373,55.3742313 L640.963373,9.76173125 L640.963373,6.87635625 Z M638.58659,9.76173125 L638.58659,57.9367313 L670.673148,57.9367313 L670.673148,92.5304813 L638.58659,92.5304813 L638.58659,147.921481 C638.58659,151.324481 639.418464,153.963856 641.082212,155.837044 C642.745959,157.710231 645.16077,158.642981 648.331397,158.642981 C651.499647,158.642981 654.945981,158.130481 658.670399,157.105481 C662.39244,156.080481 667.186409,154.117606 673.049931,151.211731 L673.049931,188.880481 C665.919584,192.301419 658.943729,194.817794 652.134248,196.439856 C645.320014,198.061919 637.873556,198.874231 629.792497,198.874231 C616.161652,198.874231 606.262354,195.678794 600.082721,189.290481 C593.903087,182.899606 590.813271,173.313294 590.813271,160.528981 L590.813271,92.5304813 L569.422232,92.5304813 L569.422232,57.9367313 L590.813271,57.9367313 L590.813271,15.9117313 L638.58659,9.76173125 Z" id="Fill-10" fill="#C0E7DB"></path>
                <path d="M729.154822,117.643237 C729.204735,111.869925 729.437659,106.929425 729.841712,102.931925 C730.293301,98.4654875 730.968307,94.9241125 731.842963,92.4077375 C732.615417,90.1886125 733.556623,88.6562375 734.645189,87.854175 C735.755146,87.0367375 737.143187,86.6369875 738.887745,86.6369875 C740.522971,86.6369875 741.911012,87.0213625 743.135054,87.8106125 C744.235504,88.52555 745.179087,89.986175 745.932527,92.1514875 C746.809559,94.670425 747.482189,98.2118 747.933777,102.675675 C748.340207,106.706487 748.573132,111.73155 748.623044,117.643237 L729.154822,117.643237 Z M738.887745,52.2994875 C730.062753,52.2994875 721.884246,53.9138625 714.585148,57.1016125 C707.238515,60.302175 700.913898,64.955675 695.787179,70.931425 C690.672344,76.8943625 686.665089,84.3538 683.874747,93.1073 C681.108173,101.783925 679.705871,111.7623 679.705871,122.768237 L679.705871,130.199487 C679.705871,152.4753 685.162963,169.966925 695.927409,182.187487 C706.720376,194.451612 722.371486,200.668237 742.452918,200.668237 C748.035979,200.668237 753.181712,200.450425 757.752264,200.022487 C762.351337,199.589425 766.890991,198.8463 771.25001,197.81105 C775.580507,196.778362 780.027466,195.427925 784.462541,193.79305 C788.82869,192.178675 793.646427,190.141487 798.780276,187.740425 L800.798164,186.794862 L800.080376,184.552675 L789.857836,152.6803 L789.002195,150.010175 L786.620659,151.188925 C779.202722,154.855862 772.483559,157.428612 766.653313,158.832862 C760.82782,160.239675 755.40638,160.949487 750.533977,160.949487 C747.375234,160.949487 744.501704,160.66505 741.987069,160.098737 C739.657822,159.575987 737.623297,158.6048 735.940535,157.208237 C734.288671,155.842425 732.900631,153.748862 731.804934,150.983925 C730.870859,148.628987 730.157824,145.612925 729.680091,141.986987 L795.692836,141.986987 L798.069619,141.986987 L798.069619,139.424487 L798.069619,122.768237 C798.069619,100.520612 792.864466,83.0443625 782.599144,70.8238 C772.272026,58.5314875 757.564498,52.2994875 738.887745,52.2994875 Z M726.766156,120.205737 L751.009333,120.205737 C751.009333,113.030737 750.771655,107.09855 750.298676,102.396362 C749.820942,97.6993 749.110285,93.9862375 748.157195,91.2494875 C747.206482,88.520425 745.93728,86.6369875 744.35672,85.6119875 C742.76903,84.5869875 740.946038,84.0744875 738.887745,84.0744875 C736.66783,84.0744875 734.80681,84.63055 733.302307,85.7401125 C731.79305,86.8522375 730.569008,88.7741125 729.618295,91.5057375 C728.667582,94.239925 727.954547,97.95555 727.479191,102.652612 C727.003834,107.352237 726.766156,113.204987 726.766156,120.205737 Z M738.887745,54.8619875 C756.951289,54.8619875 770.933898,60.7557375 780.837948,72.5432375 C790.739623,84.3307375 795.692836,101.076675 795.692836,122.768237 L795.692836,139.424487 L727.003834,139.424487 C727.479191,144.605862 728.349093,148.792987 729.618295,151.988425 C730.88512,155.183862 732.508462,157.597737 734.490698,159.2403 C736.470557,160.882862 738.806934,162.002675 741.502205,162.607425 C744.195099,163.212175 747.206482,163.511987 750.533977,163.511987 C755.603653,163.511987 761.148686,162.7868 767.171452,161.333862 C773.191841,159.883487 780.008452,157.277425 787.611777,153.518237 L797.834317,185.38805 C792.759887,187.763487 788.046729,189.759675 783.690087,191.368925 C779.328692,192.975612 775.014832,194.290175 770.736625,195.307487 C766.458417,196.3248 762.06137,197.044862 757.545484,197.470237 C753.029598,197.89305 747.997951,198.105737 742.452918,198.105737 C722.965682,198.105737 708.02523,192.211987 697.650576,180.424487 C687.271168,168.636987 682.082653,151.896175 682.082653,130.199487 L682.082653,122.768237 C682.082653,112.005737 683.427912,102.396362 686.125559,93.9401125 C688.816077,85.4838625 692.618928,78.39855 697.531737,72.6713625 C702.442168,66.9493 708.424529,62.5494875 715.476441,59.4744875 C722.525977,56.3994875 730.331329,54.8619875 738.887745,54.8619875 Z" id="Fill-12" fill="#C0E7DB"></path>
                <path d="M859.864051,52.2994875 C852.246465,52.2994875 845.040061,53.2783625 838.444491,55.207925 C831.751473,57.1708 825.878444,60.2048 820.989403,64.227925 C816.05045,68.2843625 812.107369,73.360675 809.264737,79.3133625 C806.407845,85.291675 804.958008,92.323175 804.958008,100.218237 C804.958008,112.085175 808.356807,122.265987 815.056955,130.481362 C821.683424,138.612175 833.277367,145.041487 849.520296,149.592487 C854.478263,150.976237 858.281114,152.134487 861.14989,153.138987 C863.911711,154.10505 866.08409,155.065987 867.5981,155.998737 C869.283238,157.03655 869.85842,157.789925 870.053316,158.146112 C870.393196,158.773925 870.55957,159.442737 870.55957,160.180737 C870.55957,161.449175 870.55957,165.305737 859.864051,165.305737 C854.523422,165.305737 848.773986,163.829737 842.774988,160.918737 C836.828279,158.033362 831.615996,153.46955 827.290253,147.352862 L825.65978,145.046612 L823.73934,147.076112 L800.206821,171.932362 L798.614377,173.613362 L800.068968,175.432737 C806.117878,183.015175 813.935114,189.308675 823.306766,194.14155 C832.697432,198.982112 844.595603,201.436987 858.67566,201.436987 C867.227322,201.436987 875.099224,200.463237 882.08221,198.5388 C889.165021,196.586175 895.282858,193.552175 900.269346,189.521362 C905.300994,185.452112 909.253583,180.362987 912.020157,174.394925 C914.789108,168.421737 916.193786,161.313362 916.193786,153.261987 C916.193786,140.828737 912.519281,130.563362 905.274849,122.7503 C898.189662,115.116612 886.472126,108.94355 870.452615,104.4028 C865.915338,103.226612 862.240833,102.088862 859.483766,101.012612 C856.788495,99.96455 854.689797,98.9574875 853.244713,98.022175 C851.721196,97.038175 851.238709,96.2976125 851.088972,95.9439875 C850.756222,95.1649875 850.594601,94.383425 850.594601,93.5557375 C850.594601,92.1207375 851.105609,91.000925 852.208436,90.037425 C853.415841,88.9868 855.65477,88.4307375 858.67566,88.4307375 C863.327023,88.4307375 867.633752,89.5377375 871.469878,91.7209875 C875.372554,93.9478 879.569951,97.9632375 883.938477,103.649425 L885.585587,105.791675 L887.434723,103.844175 L910.964866,78.987925 L912.464615,77.4017375 L911.193037,75.6028625 C905.890436,68.10755 898.897943,62.280425 890.408078,58.2778 C881.980008,54.31105 871.702803,52.2994875 859.864051,52.2994875 M859.864051,54.8619875 C871.427096,54.8619875 881.293118,56.7838625 889.454988,60.6276125 C897.614481,64.4713625 904.226689,69.9807375 909.301118,77.1557375 L885.768599,102.011987 C881.174279,96.033675 876.774856,91.851675 872.579835,89.4557375 C868.380061,87.064925 863.745336,85.8682375 858.67566,85.8682375 C855.029676,85.8682375 852.377188,86.59855 850.711063,88.0463625 C849.049693,89.5018625 848.217819,91.3366125 848.217819,93.5557375 C848.217819,94.752425 848.455497,95.9081125 848.928477,97.0151125 C849.40621,98.1298 850.43298,99.1932375 852.02067,100.218237 C853.60123,101.243237 855.823522,102.314362 858.67566,103.421362 C861.527799,104.53605 865.249839,105.686612 869.846536,106.880737 C885.533298,111.326675 896.78023,117.217862 903.594465,124.561987 C910.408699,131.908675 913.817004,141.474487 913.817004,153.261987 C913.817004,160.949487 912.507397,167.611987 909.895314,173.249487 C907.280854,178.886987 903.594465,183.627612 898.8409,187.471362 C894.087336,191.315112 888.304625,194.177425 881.492768,196.055737 C874.676157,197.93405 867.070454,198.874487 858.67566,198.874487 C844.890324,198.874487 833.441365,196.524675 824.331159,191.827612 C815.218577,187.13055 807.729336,181.111237 801.870568,173.761987 L825.400711,148.905737 C829.995031,155.399112 835.459253,160.180737 841.798131,163.255737 C848.134632,166.330737 854.159774,167.868237 859.864051,167.868237 C868.574957,167.868237 872.936353,165.305737 872.936353,160.180737 C872.936353,158.989175 872.658269,157.874487 872.102102,156.849487 C871.545935,155.824487 870.440731,154.799487 868.776984,153.774487 C867.113236,152.749487 864.814888,151.724487 861.884316,150.699487 C858.94899,149.674487 855.029676,148.482925 850.116868,147.111987 C834.270862,142.673737 823.17842,136.5673 816.841919,128.790112 C810.503041,121.01805 807.33479,111.493237 807.33479,100.218237 C807.33479,92.7049875 808.682426,86.1244875 811.377697,80.4869875 C814.068214,74.8494875 817.752226,70.1088625 822.429733,66.2651125 C827.102487,62.4213625 832.649896,59.5616125 839.067208,57.6807375 C845.48452,55.802425 852.412839,54.8619875 859.864051,54.8619875" id="Fill-14" fill="#C0E7DB"></path>
                <g id="Group-18" transform="translate(912.684318, 6.687500)">
                    <mask id="mask-2" fill="white">
                        <use xlink:href="#path-1"></use>
                    </mask>
                    <g id="Clip-17"></g>
                    <path d="M74.3375745,0.18885625 L71.6779554,0.53223125 L23.9046356,6.67966875 L21.8106906,6.95129375 L21.8106906,9.22423125 L21.8106906,48.6867313 L2.79643401,48.6867313 L0.419651935,48.6867313 L0.419651935,51.2492313 L0.419651935,85.8429813 L0.419651935,88.4054813 L2.79643401,88.4054813 L21.8106906,88.4054813 L21.8106906,153.841481 C21.8106906,167.289481 25.1762141,177.588169 31.8098128,184.450544 C38.4220206,191.284731 48.9701794,194.749231 63.1666988,194.749231 C71.3737273,194.749231 79.0626173,193.911294 86.0218352,192.255919 C92.971546,190.600544 100.158935,188.002169 107.389106,184.535106 L108.800915,183.858606 L108.800915,182.192981 L108.800915,144.524231 L108.800915,140.526731 L105.430638,142.194919 C99.7406214,145.018794 95.0393464,146.948356 91.4575358,147.937481 C87.9446519,148.903544 84.6623159,149.392981 81.705599,149.392981 C79.18621,149.392981 77.3774788,148.734419 76.1700735,147.376294 C74.9365236,145.987419 74.3375745,143.978419 74.3375745,141.233981 L74.3375745,88.4054813 L104.047351,88.4054813 L106.424133,88.4054813 L106.424133,85.8429813 L106.424133,51.2492313 L106.424133,48.6867313 L104.047351,48.6867313 L74.3375745,48.6867313 L74.3375745,3.07423125 L74.3375745,0.18885625 Z M71.9607925,3.07423125 L71.9607925,51.2492313 L104.047351,51.2492313 L104.047351,85.8429813 L71.9607925,85.8429813 L71.9607925,141.233981 C71.9607925,144.636981 72.7926662,147.276356 74.4564136,149.149544 C76.1201611,151.022731 78.5349717,151.955481 81.705599,151.955481 C84.8738495,151.955481 88.3201835,151.442981 92.044601,150.417981 C95.7666418,149.392981 100.560611,147.430106 106.424133,144.524231 L106.424133,182.192981 C99.2937864,185.613919 92.317931,188.130294 85.5084503,189.752356 C78.6942161,191.374419 71.2477578,192.186731 63.1666988,192.186731 C49.5358536,192.186731 39.6365562,188.991294 33.4569228,182.602981 C27.2772894,176.212106 24.1874727,166.625794 24.1874727,153.841481 L24.1874727,85.8429813 L2.79643401,85.8429813 L2.79643401,51.2492313 L24.1874727,51.2492313 L24.1874727,9.22423125 L71.9607925,3.07423125 Z" id="Fill-16" fill="#C0E7DB" mask="url(#mask-2)"></path>
                </g>
            </g>
        </g>
    </g>
</svg>