<?xml version="1.0" encoding="UTF-8"?>
<svg width="1375px" height="202px" viewBox="0 0 1375 202" version="1.1" xmlns="http://www.w3.org/2000/svg" xmlns:xlink="http://www.w3.org/1999/xlink">
    <!-- Generator: Sketch 52.5 (67469) - http://www.bohemiancoding.com/sketch -->
    <title>Group 18</title>
    <desc>Created with Sketch.</desc>
    <defs>
        <polygon id="path-1" points="0.276449741 0.0494875 121.444839 0.0494875 121.444839 148.418237 0.276449741 148.418237"></polygon>
    </defs>
    <g id="Homepage" stroke="none" stroke-width="1" fill="none" fill-rule="evenodd">
        <g id="Artboard" transform="translate(0.000000, -24.000000)">
            <g id="Group-18" transform="translate(0.000000, 24.000000)">
                <path d="M237.01666,9.5963375 L185.171064,9.5963375 L183.125779,9.5963375 L182.818987,11.7744625 L168.047748,117.639025 L148.976655,11.6694 L148.60565,9.5963375 L146.643603,9.5963375 L94.7980073,9.5963375 L92.8359606,9.5963375 L92.4649554,11.6694 L73.3938622,117.639025 L58.6250021,11.7744625 L58.3205876,9.5963375 L56.2705461,9.5963375 L2.99562902,9.5963375 L0.00142694301,9.5963375 L0.681603109,12.740525 L40.8762093,198.265525 L41.3042922,200.243775 L43.1902352,200.243775 L96.9384218,200.243775 L98.8647948,200.243775 L99.2643389,198.216838 L120.007334,93.285025 L140.750328,198.216838 L141.152251,200.243775 L143.076246,200.243775 L196.824432,200.243775 L198.710375,200.243775 L199.140836,198.265525 L239.333064,12.740525 L240.01324,9.5963375 L237.01666,9.5963375 Z M168.76122,129.777588 L185.171064,12.1588375 L237.01666,12.1588375 L196.824432,197.681275 L143.076246,197.681275 L120.482981,83.393775 L119.531686,83.393775 L96.9384218,197.681275 L43.1902352,197.681275 L2.99562902,12.1588375 L56.2705461,12.1588375 L72.6827689,129.777588 L73.6293078,129.777588 L94.7980073,12.1588375 L146.643603,12.1588375 L167.809924,129.777588 L168.76122,129.777588 Z" id="Fill-1" fill="#A9DFCE"></path>
                <g id="Group-17" transform="translate(245.958549, 0.345569)">
                    <path d="M53.6053036,0.21744375 L50.9488114,0.55569375 L2.67057306,6.70569375 L0.570588601,6.97219375 L0.570588601,9.25025625 L0.570588601,196.312756 L0.570588601,198.875256 L2.94882694,198.875256 L51.2270653,198.875256 L53.6053036,198.875256 L53.6053036,196.312756 L53.6053036,96.6955687 C56.7945212,95.1221937 59.8719617,94.3252562 62.7662777,94.3252562 C65.8698788,94.3252562 67.9698632,95.1375687 69.1898995,96.8057562 C70.5240912,98.6405062 71.2018891,101.600194 71.2018891,105.600256 L71.2018891,196.312756 L71.2018891,198.875256 L73.5801275,198.875256 L121.860744,198.875256 L124.238982,198.875256 L124.238982,196.312756 L124.238982,93.5565062 C124.238982,79.8138187 121.473091,69.5381937 116.017412,63.0115062 C110.490387,56.4156312 102.775381,53.0690062 93.0840601,53.0690062 C85.0575057,53.0690062 77.6683192,55.3137562 71.1281637,59.7391937 C65.6938891,63.4215062 59.8125057,69.2588812 53.6053036,77.1334437 L53.6053036,3.10025625 L53.6053036,0.21744375 Z M51.2270653,3.10025625 L51.2270653,83.0502562 L52.1759824,83.0502562 C59.4700394,73.1436312 66.2099668,66.0967562 72.3910083,61.9096312 C78.5768062,57.7250687 85.4713192,55.6315062 93.0840601,55.6315062 C102.118988,55.6315062 109.172842,58.6655062 114.250381,64.7283812 C119.323164,70.7938187 121.860744,80.4031937 121.860744,93.5565062 L121.860744,196.312756 L73.5801275,196.312756 L73.5801275,105.600256 C73.5801275,100.987756 72.7382311,97.5283812 71.0591948,95.2221312 C69.3754021,92.9158812 66.6118891,91.7627562 62.7662777,91.7627562 C59.0800083,91.7627562 55.2343969,92.8748812 51.2270653,95.0940062 L51.2270653,196.312756 L2.94882694,196.312756 L2.94882694,9.25025625 L51.2270653,3.10025625 Z" id="Fill-2" fill="#A9DFCE"></path>
                    <path d="M195.345217,165.5625 C193.59959,165.5625 192.210699,165.165313 191.10244,164.345313 C190.017963,163.548375 189.078559,161.98525 188.30801,159.68925 C187.425683,157.080625 186.747885,153.447 186.293642,148.890875 C185.829885,144.229688 185.59444,138.284688 185.59444,131.225 L185.59444,122.5125 C185.59444,115.455375 185.829885,109.512938 186.293642,104.849188 C186.750264,100.2905 187.425683,96.6543125 188.305632,94.04825 C189.078559,91.757375 190.017963,90.189125 191.100062,89.39475 C192.213077,88.57475 193.601968,88.175 195.345217,88.175 C197.086088,88.175 198.477357,88.57475 199.595129,89.39475 C200.672471,90.1916875 201.614253,91.757375 202.387181,94.04825 C203.267129,96.6543125 203.942549,100.2905 204.39917,104.849188 C204.862927,109.536 205.098373,115.478438 205.098373,122.5125 L205.098373,131.225 C205.098373,138.264188 204.862927,144.206625 204.39917,148.890875 C203.942549,153.447 203.267129,157.080625 202.387181,159.68925 C201.611875,161.982688 200.670093,163.548375 199.592751,164.345313 C198.479735,165.16275 197.090844,165.5625 195.345217,165.5625 M195.345217,52.3 C175.579678,52.3 160.002217,58.5115 149.040917,70.765375 C138.105777,82.9885 132.562103,100.48525 132.562103,122.76875 L132.562103,130.96875 C132.562103,153.249688 138.105777,170.746438 149.040917,182.972125 C160.002217,195.226 175.579678,201.4375 195.345217,201.4375 C215.110756,201.4375 230.688217,195.226 241.649518,182.972125 C252.584658,170.746438 258.130709,153.249688 258.130709,130.96875 L258.130709,122.76875 C258.130709,100.487813 252.584658,82.9910625 241.649518,70.765375 C230.688217,58.5115 215.110756,52.3 195.345217,52.3 M195.345217,168.125 C197.566492,168.125 199.426274,167.5715 200.936455,166.459375 C202.439502,165.349813 203.669051,163.384375 204.620347,160.565625 C205.57402,157.746875 206.287492,153.946688 206.763139,149.1625 C207.236409,144.380875 207.476611,138.4 207.476611,131.225 L207.476611,122.5125 C207.476611,115.3375 207.236409,109.359188 206.763139,104.575 C206.287492,99.793375 205.57402,95.990625 204.620347,93.171875 C203.669051,90.353125 202.439502,88.39025 200.936455,87.278125 C199.426274,86.1685625 197.566492,85.6125 195.345217,85.6125 C193.123942,85.6125 191.261782,86.1685625 189.756357,87.278125 C188.248554,88.39025 187.021383,90.353125 186.072466,93.171875 C185.118792,95.990625 184.405321,99.793375 183.929673,104.575 C183.454025,109.359188 183.216202,115.3375 183.216202,122.5125 L183.216202,131.225 C183.216202,138.4 183.454025,144.380875 183.929673,149.1625 C184.405321,153.946688 185.118792,157.746875 186.072466,160.565625 C187.021383,163.384375 188.248554,165.349813 189.756357,166.459375 C191.261782,167.5715 193.123942,168.125 195.345217,168.125 M195.345217,54.8625 C214.528088,54.8625 229.392077,60.75625 239.937186,72.54375 C250.482295,84.33125 255.752471,101.074625 255.752471,122.76875 L255.752471,130.96875 C255.752471,152.665438 250.482295,169.40625 239.937186,181.19375 C229.392077,192.98125 214.528088,198.875 195.345217,198.875 C176.162347,198.875 161.298357,192.98125 150.753248,181.19375 C140.208139,169.40625 134.940341,152.665438 134.940341,130.96875 L134.940341,122.76875 C134.940341,101.074625 140.208139,84.33125 150.753248,72.54375 C161.298357,60.75625 176.162347,54.8625 195.345217,54.8625" id="Fill-4" fill="#A9DFCE"></path>
                    <path d="M562.448661,9.25 L559.449702,9.25 L507.604106,9.25 L505.556443,9.25 L505.252028,11.4306875 L490.483168,117.29525 L471.412075,11.325625 L471.038692,9.25 L469.076645,9.25 L417.231049,9.25 L415.271381,9.25 L414.897997,11.325625 L395.826904,117.29525 L381.058044,11.4306875 L380.751251,9.25 L378.703588,9.25 L325.431049,9.25 L322.432091,9.25 L323.114645,12.3941875 L363.309251,197.919187 L363.734956,199.9 L365.623277,199.9 L419.371464,199.9 L421.295459,199.9 L421.695003,197.8705 L442.440376,92.94125 L463.185749,197.8705 L463.585293,199.9 L465.509288,199.9 L519.257474,199.9 L521.145795,199.9 L521.573878,197.919187 L561.766106,12.3941875 L562.448661,9.25 Z M559.449702,11.8125 L519.257474,197.3375 L465.509288,197.3375 L442.916023,83.05 L441.964728,83.05 L419.371464,197.3375 L365.623277,197.3375 L325.431049,11.8125 L378.703588,11.8125 L395.115811,129.43125 L396.064728,129.43125 L417.231049,11.8125 L469.076645,11.8125 L490.245345,129.43125 L491.194262,129.43125 L507.604106,11.8125 L559.449702,11.8125 Z" id="Fill-6" fill="#A9DFCE"></path>
                    <path d="M599.652632,117.643237 C599.702575,111.869925 599.933264,106.929425 600.339943,102.931925 C600.791808,98.4654875 601.467228,94.9241125 602.344798,92.4077375 C603.115347,90.1886125 604.059508,88.6562375 605.146363,87.854175 C606.257,87.0367375 607.643513,86.6369875 609.391518,86.6369875 C611.027746,86.6369875 612.416637,87.0213625 613.64143,87.8106125 C614.742554,88.52555 615.684337,89.986175 616.442995,92.1514875 C617.318187,94.670425 617.991228,98.2118 618.443093,102.675675 C618.849772,106.706487 619.080461,111.73155 619.130404,117.643237 L599.652632,117.643237 Z M609.391518,52.2994875 C600.561119,52.2994875 592.377601,53.9138625 585.074031,57.1016125 C577.722896,60.302175 571.394404,64.955675 566.264544,70.931425 C561.146575,76.8943625 557.134487,84.3538 554.347192,93.1073 C551.578922,101.783925 550.173383,111.7623 550.173383,122.768237 L550.173383,130.199487 C550.173383,152.4753 555.633819,169.966925 566.407238,182.187487 C577.206819,194.451612 592.867518,200.668237 612.958876,200.668237 C618.545358,200.668237 623.696622,200.450425 628.267596,200.022487 C632.869487,199.589425 637.411922,198.8463 641.771233,197.81105 C646.106762,196.778362 650.554067,195.427925 654.99186,193.79305 C659.363062,192.178675 664.183751,190.141487 669.320746,187.740425 L671.342249,186.794862 L670.621642,184.552675 L660.392839,152.6803 L659.536674,150.010175 L657.153679,151.188925 C649.731197,154.855862 643.005539,157.428612 637.174098,158.832862 C631.347415,160.239675 625.920275,160.949487 621.044886,160.949487 C617.886585,160.949487 615.008917,160.66505 612.492741,160.098737 C610.162067,159.575987 608.126295,158.6048 606.440124,157.208237 C604.792005,155.842425 603.398358,153.748862 602.304368,150.983925 C601.36972,148.628987 600.656249,145.612925 600.180601,141.986987 L666.231415,141.986987 L668.609653,141.986987 L668.609653,139.424487 L668.609653,122.768237 C668.609653,100.520612 663.403689,83.0443625 653.129699,70.8238 C642.798632,58.5314875 628.079715,52.2994875 609.391518,52.2994875 Z M597.262503,120.205737 L621.520534,120.205737 C621.520534,113.030737 621.28271,107.09855 620.80944,102.396362 C620.331415,97.6993 619.620321,93.9862375 618.666648,91.2494875 C617.715352,88.520425 616.445373,86.6369875 614.863845,85.6119875 C613.275181,84.5869875 611.451073,84.0744875 609.391518,84.0744875 C607.170244,84.0744875 605.308083,84.63055 603.802658,85.7401125 C602.292477,86.8522375 601.067684,88.7741125 600.116389,91.5057375 C599.165093,94.239925 598.451622,97.95555 597.975974,102.652612 C597.500326,107.352237 597.262503,113.204987 597.262503,120.205737 Z M609.391518,54.8619875 C627.46613,54.8619875 641.457306,60.7557375 651.367425,72.5432375 C661.275166,84.3307375 666.231415,101.076675 666.231415,122.768237 L666.231415,139.424487 L597.500326,139.424487 C597.975974,144.605862 598.846409,148.792987 600.116389,151.988425 C601.38399,155.183862 603.008326,157.597737 604.991777,159.2403 C606.97285,160.882862 609.310658,162.002675 612.00758,162.607425 C614.702124,163.212175 617.715352,163.511987 621.044886,163.511987 C626.117668,163.511987 631.666098,162.7868 637.692554,161.333862 C643.716632,159.883487 650.53742,157.277425 658.145404,153.518237 L668.374207,185.38805 C663.296668,187.763487 658.580622,189.759675 654.221311,191.368925 C649.857244,192.975612 645.540741,194.290175 641.259912,195.307487 C636.979083,196.3248 632.579342,197.044862 628.060689,197.470237 C623.542036,197.89305 618.507306,198.105737 612.958876,198.105737 C593.459699,198.105737 578.510093,192.211987 568.129083,180.424487 C557.743316,168.636987 552.551622,151.896175 552.551622,130.199487 L552.551622,122.768237 C552.551622,112.005737 553.897705,102.396362 556.597005,93.9401125 C559.289171,85.4838625 563.094352,78.39855 568.010171,72.6713625 C572.923611,66.9493 578.909637,62.5494875 585.96587,59.4744875 C593.019725,56.3994875 600.82986,54.8619875 609.391518,54.8619875 Z" id="Fill-8" fill="#A9DFCE"></path>
                    <path d="M803.783964,122.256506 L816.06043,60.8103188 L828.334518,122.256506 L803.783964,122.256506 Z M851.393917,8.73775625 L849.593591,8.73775625 L783.954212,8.73775625 L782.153886,8.73775625 L781.663969,10.6032563 L733.147907,195.615756 L732.291741,198.875256 L735.43815,198.875256 L786.332451,198.875256 L788.254067,198.875256 L788.658368,196.850881 L795.624228,161.975256 L836.494254,161.975256 L843.46487,196.850881 L843.866793,198.875256 L845.788409,198.875256 L898.109653,198.875256 L901.253684,198.875256 L900.399896,195.615756 L851.883834,10.6032563 L851.393917,8.73775625 Z M800.839705,124.819006 L831.281155,124.819006 L816.536078,51.0190063 L815.584782,51.0190063 L800.839705,124.819006 Z M849.593591,11.3002563 L898.109653,196.312756 L845.788409,196.312756 L838.41587,159.412756 L793.70499,159.412756 L786.332451,196.312756 L735.43815,196.312756 L783.954212,11.3002563 L849.593591,11.3002563 Z" id="Fill-10" fill="#A9DFCE"></path>
                    <g id="Group-14" transform="translate(1006.994819, 52.250000)">
                        <mask id="mask-2" fill="white">
                            <use xlink:href="#path-1"></use>
                        </mask>
                        <g id="Clip-13"></g>
                        <path d="M49.7556984,65.3932375 C49.8056415,59.619925 50.0387088,54.679425 50.4430093,50.681925 C50.8948746,46.2154875 51.5702943,42.6741125 52.4478642,40.1577375 C53.2184135,37.9386125 54.1625741,36.4062375 55.249429,35.604175 C56.3600663,34.7867375 57.7489575,34.3869875 59.4945845,34.3869875 C61.1308124,34.3869875 62.5197036,34.7713625 63.7444964,35.5606125 C64.8456207,36.27555 65.7874031,37.736175 66.5436829,39.9014875 C67.4212528,42.420425 68.0942943,45.9618 68.5461596,50.425675 C68.9528383,54.4564875 69.1859057,59.48155 69.2334705,65.3932375 L49.7556984,65.3932375 Z M59.4945845,0.0494875 C50.6641855,0.0494875 42.4806674,1.6638625 35.1770974,4.8516125 C27.8259627,8.052175 21.4974705,12.705675 16.3676104,18.681425 C11.2496415,24.6443625 7.23755337,32.1038 4.44787979,40.8573 C1.67961036,49.533925 0.276449741,59.5123 0.276449741,70.5182375 L0.276449741,77.9494875 C0.276449741,100.2253 5.73688497,117.716925 16.5079264,129.937487 C27.3075067,142.201612 42.9682062,148.418237 63.061942,148.418237 C68.6484238,148.418237 73.7973098,148.200425 78.3706622,147.772487 C82.9725534,147.339425 87.5149886,146.5963 91.8766777,145.56105 C96.209828,144.528362 100.657134,143.177925 105.097305,141.54305 C109.466128,139.928675 114.286818,137.891487 119.423812,135.490425 L121.445315,134.544862 L120.724709,132.302675 L110.495906,100.4303 L109.63974,97.760175 L107.256745,98.938925 C99.8342632,102.605862 93.1109834,105.178612 87.2771648,106.582862 C81.4481026,107.989675 76.0233409,108.699487 71.1479523,108.699487 C67.9896518,108.699487 65.1119834,108.41505 62.5958073,107.848737 C60.2651337,107.325987 58.2293617,106.3548 56.5431907,104.958237 C54.8926933,103.592425 53.5038021,101.498862 52.4074342,98.733925 C51.4727865,96.3789875 50.759315,93.362925 50.2812891,89.7369875 L116.334481,89.7369875 L118.712719,89.7369875 L118.712719,87.1744875 L118.712719,70.5182375 C118.712719,48.2706125 113.504377,30.7943625 103.232766,18.5738 C92.8993202,6.2814875 78.1827813,0.0494875 59.4945845,0.0494875 Z M47.3655689,67.9557375 L71.6236,67.9557375 C71.6236,60.7807375 71.3857762,54.84855 70.9125067,50.1463625 C70.4344808,45.4493 69.7233876,41.7362375 68.769714,38.9994875 C67.8184187,36.270425 66.5484394,34.3869875 64.9669109,33.3619875 C63.3782477,32.3369875 61.5541389,31.8244875 59.4945845,31.8244875 C57.2733098,31.8244875 55.4111492,32.38055 53.9057244,33.4901125 C52.395543,34.6022375 51.1707503,36.5241125 50.2194549,39.2557375 C49.2681596,41.989925 48.5546881,45.70555 48.0790404,50.4026125 C47.6033927,55.1022375 47.3655689,60.9549875 47.3655689,67.9557375 Z M59.4945845,2.6119875 C77.5691959,2.6119875 91.560372,8.5057375 101.470491,20.2932375 C111.378232,32.0807375 116.334481,48.826675 116.334481,70.5182375 L116.334481,87.1744875 L47.6033927,87.1744875 C48.0790404,92.3558625 48.9494756,96.5429875 50.2194549,99.738425 C51.487056,102.933862 53.1113927,105.347737 55.0948435,106.9903 C57.0759161,108.632862 59.4137244,109.752675 62.1106466,110.357425 C64.8051907,110.962175 67.8184187,111.261988 71.1479523,111.261988 C76.2207347,111.261988 81.7691648,110.5368 87.7956207,109.083862 C93.8196984,107.633488 100.640486,105.027425 108.24847,101.268237 L118.477274,133.13805 C113.399735,135.513488 108.683688,137.509675 104.324377,139.118925 C99.9603098,140.725613 95.6438073,142.040175 91.3629782,143.057488 C87.0821492,144.0748 82.6824083,144.794863 78.1637554,145.220238 C73.6451026,145.64305 68.610372,145.855738 63.061942,145.855738 C43.5627658,145.855738 28.6131596,139.961988 18.2321492,128.174487 C7.84638238,116.386988 2.65468808,99.646175 2.65468808,77.9494875 L2.65468808,70.5182375 C2.65468808,59.7557375 4.00077098,50.1463625 6.7000715,41.6901125 C9.39223731,33.2338625 13.1974187,26.14855 18.1132373,20.4213625 C23.0266777,14.6993 29.0127036,10.2994875 36.0689368,7.2244875 C43.1227917,4.1494875 50.9329264,2.6119875 59.4945845,2.6119875 Z" id="Fill-12" fill="#A9DFCE" mask="url(#mask-2)"></path>
                    </g>
                    <path d="M959.60281,51.378525 L956.941562,51.7219 L909.003411,57.9205875 L906.908183,58.1922125 L906.908183,60.46515 L906.908183,196.313525 L906.908183,198.876025 L909.286422,198.876025 L957.224572,198.876025 L959.60281,198.876025 L959.60281,196.313525 L959.60281,149.775962 C959.60281,122.011275 969.013499,109.631838 990.117987,109.631838 C995.193147,109.631838 997.768779,110.011088 1002.44677,110.702963 L1005.14845,111.10015 L1005.14845,108.163525 L1005.14845,57.518275 L1005.14845,55.3094 L1003.12219,54.9839625 L1002.93907,54.9532125 C999.978163,54.4765875 997.837748,54.1332125 993.409468,54.1332125 C978.69293,54.1332125 966.540132,62.16665 959.605189,75.8170875 L959.60281,54.2664625 L959.60281,51.378525 Z M957.224572,54.2664625 L957.22695,89.82115 C961.87165,68.4575875 976.47879,56.6957125 993.409468,56.6957125 C997.749753,56.6957125 999.776012,57.036525 1002.77021,57.518275 L1002.77021,108.163525 C997.978064,107.456275 995.278764,107.069338 990.117987,107.069338 C971.757987,107.069338 957.224572,115.848463 957.224572,149.775962 L957.224572,196.313525 L909.286422,196.313525 L909.286422,60.46515 L957.224572,54.2664625 Z" id="Fill-15" fill="#A9DFCE"></path>
                </g>
            </g>
        </g>
    </g>
</svg>